<svg width="300" height="85" viewBox="0 0 300 85" fill="none" xmlns="http://www.w3.org/2000/svg">
<path d="M33.7079 19.8278C33.7572 19.7966 33.8013 19.7627 33.8428 19.7263C35.1608 18.615 36.8214 17.751 38.4353 17.1602C40.0413 16.5694 42.2571 16.4341 43.9099 17.0379C43.762 16.9832 43.1393 16.3014 43.0329 16.1791C42.5867 15.6768 42.0651 15.2317 41.4917 14.8804C39.7118 13.7926 37.6439 13.7899 35.8692 14.8179C34.2709 15.747 32.6025 16.8817 31.5491 18.4354C31.5388 18.4511 31.5284 18.4667 31.518 18.4823C31.3493 18.7347 31.3883 19.2526 31.5076 19.5077C31.8864 20.3353 33.0592 20.252 33.7079 19.8278Z" fill="#E88110"/>
<path d="M56.8679 8.1296C57.9472 7.47116 59.1382 7.03133 60.2383 6.40933C60.8065 6.08922 61.3488 5.72227 61.821 5.26943C62.2699 4.84001 62.6227 4.28828 63.2117 4.03844C63.4868 3.92132 63.8292 3.91091 63.8734 4.27266C63.9564 4.94151 63.2455 5.8654 62.9133 6.40413C61.5771 8.55901 59.7064 10.3313 57.5347 11.6274C57.5347 11.6274 52.4829 14.4355 52.4492 15.8278C52.5141 13.1681 54.6209 9.49852 56.8679 8.1296Z" fill="#E88110"/>
<path d="M38.394 14.0684C38.3966 14.0215 40.7889 14.8934 41.012 15.0053C41.8631 15.4347 42.6622 15.976 43.3757 16.611C44.8028 17.881 45.8847 19.531 46.4244 21.371C46.8785 22.9143 46.8837 24.5227 46.9641 26.118C47.0912 28.6789 47.0757 31.297 46.6735 33.8345C46.4088 35.5079 45.7861 37.1137 44.9507 38.5841C44.5303 39.3232 44.0555 40.0285 43.5314 40.6947C43.3083 40.9784 42.1044 42.0116 42.7011 42.3551C43.4665 42.7976 45.0596 41.5327 45.672 41.1528C48.4093 39.4611 50.4357 37.2151 51.4476 34.1077C52.1456 31.9633 52.3583 29.7173 52.4855 27.4791C52.5633 26.0868 52.5841 24.6892 52.5425 23.2943C52.5036 22.0034 52.3012 20.7022 52.3012 19.4139C52.1533 16.9806 52.6489 14.7736 53.5103 12.499C54.0267 11.1353 54.9348 9.89912 56.1075 9.03248C56.8003 8.51978 57.5683 8.1216 58.2922 7.66095C58.6269 7.44755 58.9383 7.20551 59.2808 7.00512C59.6259 6.80212 59.9813 6.61995 60.3134 6.39353C60.3524 6.3675 60.3887 6.34668 60.4094 6.31025C60.3134 6.27902 60.1292 6.39092 60.0384 6.42736C59.8334 6.51324 59.6311 6.60693 59.4287 6.69802C59.1355 6.83335 58.8475 6.99731 58.5439 7.10922C58.2481 7.21853 57.9497 7.32783 57.6539 7.43714C57.1039 7.64013 56.5512 7.84053 56.009 8.06695C54.6753 8.62128 53.2612 9.00906 51.8783 9.41505C50.4123 9.84447 48.9256 10.2062 47.4259 10.4977C45.0077 10.9662 42.5299 11.177 40.2648 12.231C39.5409 12.5745 38.4278 13.1445 38.394 14.0684Z" fill="#FDAB44"/>
<path d="M45.8797 9.93812C48.1223 9.93812 49.9403 8.1146 49.9403 5.86518C49.9403 3.61575 48.1223 1.79224 45.8797 1.79224C43.6371 1.79224 41.8191 3.61575 41.8191 5.86518C41.8191 8.1146 43.6371 9.93812 45.8797 9.93812Z" fill="#FDAB44"/>
<path d="M47.4444 2.10202C47.8077 2.29461 48.1735 2.50021 48.4927 2.75786C48.804 3.0103 49.0557 3.3148 49.2762 3.64792C49.4968 3.98104 49.6628 4.348 49.7718 4.73317C49.8185 4.89713 49.8548 5.06369 49.8808 5.23025C49.9041 5.37859 49.9197 5.52694 49.9301 5.67528C49.9508 5.98498 49.9482 6.28948 49.8963 6.59917C49.7666 7.39034 49.3904 8.09822 48.83 8.66557C47.7117 9.79246 46.0174 10.2739 44.5099 9.69877C44.3802 9.64933 44.253 9.59207 44.1285 9.52701C44.0325 9.47756 43.9313 9.40989 43.9157 9.30319C43.9002 9.19389 43.9884 9.1002 44.0792 9.04034C44.2712 8.91802 44.5073 8.87898 44.7356 8.87638C44.964 8.87378 45.1923 8.90501 45.4206 8.90761C46.2146 8.91281 47.0059 8.53805 47.4989 7.91345C47.7947 7.54129 47.9841 7.09886 48.0334 6.6252C48.0723 6.26345 48.0412 5.89649 47.9867 5.53474C47.8284 4.50415 47.5249 3.39287 46.6946 2.70321C46.6453 2.66156 46.5934 2.62253 46.5545 2.57048C46.4481 2.43254 46.4559 2.14106 46.583 2.01354C46.7076 1.89122 47.4055 2.0812 47.4444 2.10202Z" fill="#E88110"/>
<path d="M20.4844 32.1689C20.4974 32.1116 20.5077 32.057 20.5129 32.0023C20.7101 30.2873 21.3302 28.515 22.0957 26.9743C22.8611 25.4388 24.3789 23.8148 25.9954 23.1173C25.8527 23.1798 24.9316 23.1121 24.7707 23.0965C24.1013 23.0367 23.4189 23.0731 22.7625 23.2136C20.7231 23.6483 19.2156 25.0692 18.6292 27.0367C18.0999 28.8117 17.664 30.7844 17.9598 32.64C17.9624 32.6582 17.965 32.6764 17.9702 32.6946C18.0195 32.9939 18.4035 33.3426 18.663 33.4467C19.5088 33.7903 20.3054 32.9236 20.4844 32.1689Z" fill="#BF3932"/>
<path d="M29.3318 7.71825C29.6665 6.49767 30.2322 5.35517 30.6084 4.1476C30.803 3.5256 30.9457 2.88277 30.9794 2.22954C31.0106 1.60754 30.8912 0.964718 31.1507 0.376549C31.27 0.103284 31.5113 -0.13875 31.7915 0.0928744C32.3105 0.52229 32.4246 1.68301 32.5492 2.30501C33.0525 4.79302 32.902 7.36951 32.2093 9.80547C32.2093 9.80547 30.4553 15.3254 31.3842 16.3612C29.6095 14.3807 28.6339 10.2609 29.3318 7.71825Z" fill="#BF3932"/>
<path d="M19.95 24.7542C19.9189 24.7178 22.2566 23.7054 22.4979 23.6352C23.4112 23.3619 24.3609 23.2057 25.3157 23.1771C27.2227 23.1173 29.1402 23.5753 30.7903 24.5408C32.1759 25.3528 33.2812 26.5188 34.4306 27.6222C36.2754 29.3971 38.0553 31.3126 39.4979 33.4336C40.4501 34.8338 41.0962 36.4317 41.4932 38.0739C41.693 38.8989 41.8279 39.7421 41.9057 40.588C41.9368 40.9471 41.7682 42.5268 42.4376 42.3681C43.2964 42.1651 43.5896 40.1481 43.7764 39.4481C44.6093 36.3328 44.547 33.3035 43.1589 30.3497C42.2015 28.3093 40.8186 26.5292 39.3785 24.8141C38.4834 23.7471 37.5416 22.7165 36.5582 21.7301C35.6475 20.8166 34.6096 20.0125 33.7275 19.0729C31.9553 17.4021 30.8059 15.4607 29.877 13.2095C29.3192 11.8614 29.135 10.3363 29.3944 8.8997C29.5501 8.04868 29.8329 7.23409 30.0457 6.39868C30.1443 6.01351 30.2039 5.62313 30.3155 5.24056C30.4271 4.85539 30.562 4.47802 30.6476 4.08504C30.658 4.0408 30.671 3.99916 30.6606 3.95752C30.5698 3.99916 30.5101 4.20736 30.4712 4.29845C30.3804 4.50145 30.2974 4.70965 30.2143 4.91525C30.0924 5.21454 29.9964 5.53465 29.8537 5.82353C29.7136 6.1072 29.5709 6.39087 29.4308 6.67455C29.1687 7.20026 28.9066 7.72857 28.6653 8.26469C28.0738 9.58677 27.3135 10.8412 26.5844 12.0878C25.8112 13.4099 24.9784 14.6955 24.0858 15.9395C22.6458 17.9435 20.9878 19.8043 20.0642 22.1283C19.7632 22.8804 19.3403 24.0594 19.95 24.7542Z" fill="#FD6F63"/>
<path d="M19.7878 17.7065C22.0304 17.7065 23.8484 15.883 23.8484 13.6336C23.8484 11.3842 22.0304 9.56067 19.7878 9.56067C17.5452 9.56067 15.7272 11.3842 15.7272 13.6336C15.7272 15.883 17.5452 17.7065 19.7878 17.7065Z" fill="#FD6F63"/>
<path d="M18.3497 9.81834C18.7441 9.70903 19.1515 9.60754 19.5614 9.5737C19.9584 9.54247 20.3528 9.59192 20.7394 9.68301C21.126 9.7741 21.4996 9.92765 21.8421 10.1306C21.9874 10.2165 22.1275 10.3128 22.2624 10.4169C22.3792 10.508 22.4933 10.6043 22.6023 10.7058C22.8306 10.9166 23.0356 11.1404 23.2095 11.4007C23.6583 12.0643 23.8685 12.8399 23.8477 13.6362C23.8062 15.2238 22.9033 16.7436 21.4114 17.3604C21.2817 17.4151 21.1493 17.4593 21.017 17.4984C20.9132 17.527 20.7939 17.5504 20.7108 17.4828C20.6252 17.4151 20.6226 17.285 20.6512 17.1783C20.7056 16.957 20.8535 16.7671 21.017 16.6083C21.1831 16.4496 21.3699 16.3142 21.5359 16.1581C22.1171 15.6141 22.4363 14.797 22.3688 14.0032C22.3273 13.5295 22.1638 13.0767 21.8758 12.6967C21.6553 12.4052 21.3828 12.1606 21.0974 11.9368C20.2775 11.2966 19.2968 10.698 18.22 10.7657C18.1551 10.7709 18.0903 10.7761 18.028 10.7657C17.8542 10.7396 17.6621 10.521 17.6673 10.3414C17.6673 10.1749 18.3056 9.83135 18.3497 9.81834Z" fill="#BF3932"/>
<path d="M19.5412 50.6829C19.51 50.6334 19.4763 50.5892 19.44 50.5476C18.3269 49.2307 17.4603 47.5651 16.8635 45.9515C16.2694 44.3432 16.1241 42.1206 16.7208 40.4602C16.6689 40.6085 15.9891 41.2358 15.8698 41.3451C15.369 41.7953 14.9305 42.3184 14.5828 42.8962C13.5035 44.6867 13.5087 46.7609 14.5413 48.5358C15.4728 50.1364 16.6118 51.8046 18.1634 52.856C18.179 52.8664 18.1946 52.8768 18.2101 52.8872C18.4618 53.0564 18.9781 53.0122 19.2324 52.895C20.0549 52.5073 19.9667 51.3309 19.5412 50.6829Z" fill="#1289B2"/>
<path d="M7.79431 27.4972C7.13528 26.4172 6.689 25.2226 6.06888 24.1218C5.74715 23.5544 5.38131 23.0105 4.92725 22.5395C4.49654 22.0918 3.94648 21.7405 3.6948 21.1471C3.57804 20.8712 3.56507 20.5303 3.92572 20.4835C4.59254 20.3976 5.51623 21.1081 6.05332 21.4386C8.20686 22.7711 9.98158 24.6423 11.2815 26.8128C11.2815 26.8128 14.1018 31.8695 15.4874 31.8981C12.8357 31.8461 9.16946 29.7458 7.79431 27.4972Z" fill="#1289B2"/>
<path d="M13.783 46.0063C13.7363 46.0037 14.5977 43.6015 14.7093 43.3751C15.1348 42.5189 15.6693 41.7173 16.2998 40.999C17.5608 39.5624 19.2032 38.472 21.035 37.9228C22.5736 37.4622 24.1771 37.4492 25.765 37.3633C28.3181 37.2254 30.9283 37.2306 33.458 37.6261C35.129 37.8864 36.7324 38.5032 38.1984 39.336C38.9353 39.755 39.641 40.2287 40.3104 40.7518C40.5932 40.973 41.6285 42.178 41.9684 41.5794C42.4069 40.8116 41.1407 39.2189 40.7593 38.6021C39.0624 35.8642 36.8155 33.8395 33.7149 32.8349C31.5743 32.1426 29.3352 31.937 27.1012 31.8199C25.7131 31.7471 24.3198 31.7314 22.929 31.7783C21.6421 31.8225 20.3474 32.0307 19.0605 32.0359C16.6345 32.1921 14.4342 31.7054 12.1613 30.8492C10.7992 30.3365 9.56412 29.4308 8.69492 28.2571C8.18119 27.5622 7.78161 26.7971 7.31977 26.071C7.10701 25.7378 6.86312 25.4255 6.66074 25.082C6.45836 24.7359 6.27414 24.3793 6.0484 24.0488C6.02246 24.0098 6.0017 23.9733 5.96538 23.9525C5.93424 24.0488 6.04581 24.2336 6.08473 24.3247C6.17035 24.5303 6.26376 24.7333 6.35717 24.9363C6.49209 25.2304 6.65814 25.5192 6.76971 25.8211C6.88128 26.1178 6.99025 26.4145 7.09923 26.7138C7.3042 27.2655 7.50658 27.8173 7.73232 28.3612C8.29016 29.6963 8.68195 31.112 9.0919 32.4992C9.5252 33.967 9.89364 35.4582 10.1894 36.9599C10.6642 39.3828 10.8848 41.8682 11.946 44.135C12.2911 44.8637 12.8593 45.9776 13.783 46.0063Z" fill="#5BC2FC"/>
<path d="M5.58 42.5997C7.8226 42.5997 9.64059 40.7762 9.64059 38.5268C9.64059 36.2774 7.8226 34.4539 5.58 34.4539C3.3374 34.4539 1.51941 36.2774 1.51941 38.5268C1.51941 40.7762 3.3374 42.5997 5.58 42.5997Z" fill="#5BC2FC"/>
<path d="M1.8217 36.9704C2.01111 36.6061 2.21608 36.2391 2.47295 35.9164C2.72204 35.6041 3.02561 35.3491 3.35772 35.1279C3.68983 34.9066 4.05567 34.7375 4.43708 34.6282C4.60054 34.5813 4.7666 34.5449 4.93266 34.5163C5.08055 34.4928 5.22585 34.4746 5.37634 34.4642C5.6851 34.4434 5.98867 34.4434 6.29743 34.4928C7.0862 34.6178 7.79453 34.9925 8.36016 35.5547C9.48622 36.6711 9.97401 38.3706 9.40579 39.8827C9.35649 40.0128 9.29941 40.1429 9.23714 40.2678C9.18784 40.3641 9.12038 40.4656 9.0166 40.4812C8.90762 40.4969 8.81162 40.4084 8.75454 40.3173C8.63 40.1247 8.59108 39.8879 8.58848 39.6588C8.58589 39.4298 8.61702 39.2008 8.61702 38.9718C8.61962 38.1754 8.2408 37.3842 7.61809 36.8898C7.24447 36.5957 6.80338 36.4083 6.33116 36.3588C5.97051 36.3224 5.60466 36.3536 5.24401 36.4083C4.21913 36.5696 3.11123 36.882 2.42625 37.7148C2.38473 37.7642 2.34581 37.8163 2.29392 37.8553C2.15641 37.9646 1.86581 37.9542 1.73867 37.8293C1.61413 37.7122 1.80354 37.0095 1.8217 36.9704Z" fill="#1289B2"/>
<path d="M32.3644 64.4794C32.3073 64.4664 32.2528 64.4586 32.1983 64.4534C30.4833 64.3025 28.7008 63.7299 27.144 63.0038C25.5924 62.2803 23.9319 60.8021 23.1924 59.1989C23.2572 59.3421 23.2157 60.2659 23.2054 60.4273C23.1664 61.1014 23.2183 61.7832 23.3766 62.439C23.8644 64.4742 25.3226 65.9446 27.3023 66.4782C29.0874 66.9596 31.0645 67.3422 32.9067 66.9961C32.9248 66.9935 32.943 66.9883 32.9611 66.9857C33.2595 66.9284 33.5942 66.5328 33.6928 66.27C34.0094 65.4137 33.122 64.6382 32.3644 64.4794Z" fill="#09468E"/>
<path d="M7.75337 56.2813C6.52611 55.9794 5.3741 55.4433 4.15981 55.0998C3.53451 54.9228 2.89104 54.7953 2.23979 54.7797C1.61968 54.764 0.981398 54.902 0.387228 54.6599C0.112198 54.548 -0.136886 54.3112 0.0862517 54.0249C0.501392 53.4914 1.65341 53.3457 2.26833 53.2025C4.73323 52.63 7.3071 52.7107 9.75383 53.3379C9.75383 53.3379 15.3037 54.9436 16.3104 53.9859C14.3878 55.8181 10.3091 56.9111 7.75337 56.2813Z" fill="#09468E"/>
<path d="M24.9893 65.2158C24.9556 65.247 23.8814 62.9308 23.8036 62.6939C23.5052 61.7857 23.3236 60.8357 23.2691 59.8806C23.1575 57.9704 23.5597 56.0367 24.4782 54.3529C25.2488 52.9397 26.3801 51.7998 27.449 50.6183C29.1667 48.721 31.027 46.881 33.1027 45.3794C34.4727 44.3852 36.045 43.6956 37.6719 43.2531C38.4892 43.0293 39.3246 42.8706 40.1653 42.7717C40.5234 42.73 42.1009 42.8575 41.9245 42.1887C41.6987 41.3325 39.6801 41.093 38.9796 40.9265C35.853 40.177 32.8355 40.3227 29.9269 41.7957C27.9213 42.8133 26.1855 44.2473 24.5145 45.7385C23.4741 46.665 22.4751 47.6384 21.5203 48.6508C20.6356 49.5903 19.8624 50.6521 18.9516 51.563C17.3352 53.3847 15.4307 54.5923 13.2149 55.5865C11.8865 56.1824 10.3738 56.4115 8.93379 56.1876C8.08276 56.0549 7.26026 55.7921 6.4222 55.6021C6.0356 55.5136 5.6464 55.4641 5.2624 55.3626C4.8758 55.2611 4.49439 55.1362 4.1026 55.0608C4.05849 55.0529 4.01698 55.0399 3.97546 55.0529C4.01957 55.144 4.22974 55.1961 4.32055 55.2351C4.52552 55.321 4.73569 55.3991 4.94326 55.4772C5.24424 55.5891 5.56597 55.6802 5.85916 55.8155C6.14717 55.9482 6.43257 56.0835 6.71798 56.2163C7.24988 56.4635 7.78178 56.7134 8.32406 56.9398C9.65769 57.4967 10.9291 58.2254 12.1926 58.9229C13.5315 59.662 14.8366 60.461 16.1001 61.3224C18.1369 62.7096 20.0362 64.3231 22.3791 65.1845C23.1264 65.4552 24.3147 65.8456 24.9893 65.2158Z" fill="#0458F1"/>
<path d="M13.9112 69.7573C16.1538 69.7573 17.9718 67.9338 17.9718 65.6844C17.9718 63.435 16.1538 61.6115 13.9112 61.6115C11.6686 61.6115 9.85059 63.435 9.85059 65.6844C9.85059 67.9338 11.6686 69.7573 13.9112 69.7573Z" fill="#0458F1"/>
<path opacity="0.36" d="M10.1548 67.2302C10.0328 66.8373 9.92125 66.4339 9.87973 66.0227C9.83822 65.6245 9.87454 65.2289 9.95498 64.8385C10.0354 64.4482 10.1781 64.0708 10.3701 63.7221C10.4531 63.5737 10.544 63.4306 10.6451 63.2926C10.7334 63.1729 10.8268 63.0558 10.9228 62.9439C11.1277 62.7097 11.3431 62.4989 11.5974 62.3141C12.246 61.8456 13.0114 61.614 13.808 61.614C15.3933 61.614 16.9293 62.4754 17.5858 63.9537C17.6429 64.0812 17.6922 64.2113 17.7337 64.3467C17.7648 64.4482 17.7907 64.5705 17.7259 64.6538C17.6584 64.7396 17.5313 64.7474 17.4249 64.724C17.2018 64.6746 17.0098 64.534 16.8463 64.3727C16.6828 64.2113 16.5453 64.0265 16.3845 63.8652C15.8266 63.2978 15.0041 63.0012 14.2154 63.0896C13.7431 63.1443 13.2995 63.3213 12.9284 63.618C12.6456 63.847 12.4069 64.1254 12.1915 64.4195C11.5766 65.2575 11.0058 66.2595 11.1018 67.3369C11.107 67.402 11.1148 67.4671 11.107 67.5295C11.0836 67.7039 10.8709 67.9017 10.6919 67.9017C10.5258 67.9043 10.1677 67.2719 10.1548 67.2302Z" fill="#09468E"/>
<path d="M51.1556 65.0983C51.1089 65.1296 51.0622 65.1634 51.0207 65.1998C49.713 66.3215 48.0577 67.2012 46.4516 67.8075C44.8507 68.4113 42.6375 68.5675 40.9769 67.9767C41.1248 68.0288 41.7527 68.708 41.8617 68.8277C42.3132 69.3274 42.8373 69.7646 43.4133 70.1108C45.2036 71.183 47.2715 71.17 49.0358 70.1238C50.6263 69.1817 52.2843 68.0314 53.3248 66.4699C53.3351 66.4542 53.3455 66.4386 53.3559 66.423C53.5245 66.1706 53.4778 65.6527 53.3585 65.3976C52.9745 64.5752 51.7991 64.6689 51.1556 65.0983Z" fill="#34936F"/>
<path d="M28.0969 76.9972C27.0228 77.6634 25.8344 78.1163 24.7395 78.7461C24.1739 79.0714 23.6342 79.4435 23.1671 79.899C22.7235 80.3336 22.3758 80.8853 21.7868 81.143C21.5144 81.2627 21.1719 81.2757 21.1226 80.914C21.0344 80.2451 21.7375 79.316 22.0644 78.7747C23.3825 76.6068 25.2377 74.8189 27.399 73.5046C27.399 73.5046 32.4274 70.6522 32.4481 69.2599C32.4092 71.9197 30.3335 75.6074 28.0969 76.9972Z" fill="#34936F"/>
<path d="M46.5208 70.8994C46.5208 70.9462 44.1182 70.0952 43.895 69.9833C43.0388 69.5591 42.2371 69.0281 41.5184 68.3983C40.0784 67.1413 38.9834 65.4991 38.4282 63.6644C37.9611 62.1237 37.9404 60.5153 37.847 58.9226C37.6965 56.3643 37.6913 53.7436 38.0701 51.2061C38.3218 49.5301 38.9289 47.9191 39.7514 46.4435C40.164 45.7018 40.6362 44.9913 41.1525 44.3198C41.3731 44.0336 42.5692 42.9926 41.9698 42.6516C41.2018 42.2144 39.6191 43.4922 39.0094 43.8774C36.2876 45.5951 34.2794 47.8567 33.296 50.9719C32.6162 53.1216 32.4242 55.3701 32.3152 57.6083C32.2478 59.0006 32.2426 60.3982 32.2945 61.7931C32.3438 63.084 32.5591 64.3827 32.5695 65.6709C32.7382 68.1043 32.2633 70.3138 31.4201 72.5962C30.9141 73.9651 30.019 75.2091 28.8514 76.0836C28.1612 76.6015 27.3984 77.0049 26.6771 77.4733C26.345 77.6893 26.0362 77.934 25.6938 78.137C25.3513 78.3426 24.9958 78.5299 24.6663 78.7564C24.6274 78.7824 24.591 78.8032 24.5729 78.8396C24.6689 78.8709 24.8531 78.759 24.9439 78.7173C25.1489 78.6288 25.3513 78.5351 25.5511 78.4415C25.8416 78.3035 26.1297 78.137 26.4332 78.0224C26.729 77.9105 27.0248 77.7986 27.3206 77.6867C27.8681 77.4785 28.4207 77.2729 28.9604 77.0439C30.2888 76.4792 31.6977 76.0784 33.0781 75.6594C34.5414 75.2169 36.023 74.8422 37.5201 74.5377C39.9331 74.0484 42.4109 73.8168 44.6657 72.7419C45.387 72.401 46.4975 71.8233 46.5208 70.8994Z" fill="#59C09C"/>
<path d="M39.1036 83.238C41.3462 83.238 43.1641 81.4145 43.1641 79.1651C43.1641 76.9157 41.3462 75.0922 39.1036 75.0922C36.861 75.0922 35.043 76.9157 35.043 79.1651C35.043 81.4145 36.861 83.238 39.1036 83.238Z" fill="#59C09C"/>
<path opacity="0.4" d="M37.5734 82.9414C37.2076 82.754 36.8418 82.551 36.52 82.2933C36.2061 82.0435 35.9518 81.7416 35.7287 81.4111C35.5055 81.0806 35.3369 80.7136 35.2253 80.331C35.176 80.1671 35.1397 80.0031 35.1112 79.834C35.0878 79.6882 35.0696 79.5399 35.0567 79.3915C35.0333 79.0818 35.0333 78.7773 35.0826 78.4676C35.2046 77.6739 35.5756 76.9634 36.1308 76.3934C37.2387 75.2587 38.9304 74.759 40.4405 75.3238C40.5702 75.3732 40.7 75.4279 40.8245 75.493C40.9205 75.5424 41.0243 75.6075 41.0373 75.7142C41.0528 75.8235 40.9672 75.9198 40.8764 75.9796C40.6844 76.1046 40.4483 76.1436 40.22 76.1488C39.9916 76.1514 39.7633 76.1228 39.535 76.1228C38.741 76.1254 37.9549 76.5079 37.4645 77.1352C37.1713 77.5099 36.9871 77.9523 36.9404 78.4286C36.904 78.7903 36.9378 79.1573 36.9974 79.5165C37.1635 80.5445 37.48 81.6531 38.3129 82.3376C38.3622 82.3792 38.4141 82.4183 38.4556 82.4703C38.5646 82.6083 38.5568 82.8997 38.4323 83.0273C38.3129 83.147 37.6124 82.9622 37.5734 82.9414Z" fill="#34936F"/>
<path d="M64.1135 52.0078C64.1005 52.065 64.0927 52.1197 64.0875 52.1743C63.9318 53.892 63.3558 55.6799 62.6267 57.2388C61.9003 58.7925 60.4213 60.4529 58.8204 61.1895C58.9631 61.1244 59.8842 61.1686 60.0451 61.179C60.7171 61.2207 61.3969 61.1686 62.0507 61.0125C64.0797 60.5284 65.5509 59.071 66.088 57.0879C66.5732 55.3 66.9598 53.3168 66.6199 51.469C66.6173 51.4508 66.6121 51.4326 66.6095 51.4144C66.5524 51.1151 66.1606 50.7768 65.8986 50.6779C65.0501 50.3604 64.2743 51.2478 64.1135 52.0078Z" fill="#59C09C"/>
<path d="M55.8627 76.6669C55.5566 77.8953 55.0195 79.0508 54.6744 80.2687C54.4954 80.896 54.3682 81.5414 54.3501 82.1946C54.3345 82.8166 54.4694 83.4568 54.2255 84.0528C54.1114 84.3287 53.8752 84.5785 53.5898 84.3521C53.0605 83.9357 52.9178 82.7776 52.7777 82.1608C52.2147 79.6858 52.3029 77.1067 52.936 74.6525C52.936 74.6525 54.555 69.0909 53.6028 68.0786C55.4216 70.0122 56.4984 74.106 55.8627 76.6669Z" fill="#59C09C"/>
<path d="M64.8232 59.4069C64.8544 59.4407 62.5426 60.5104 62.3039 60.5884C61.3957 60.8851 60.4513 61.0621 59.4991 61.1168C57.5946 61.2235 55.6668 60.8123 53.9933 59.8858C52.587 59.1076 51.4557 57.9703 50.2804 56.8929C48.3941 55.1648 46.5675 53.291 45.073 51.2064C44.087 49.8296 43.402 48.2499 42.9661 46.6155C42.7456 45.7957 42.5899 44.9577 42.4939 44.1119C42.4524 43.7528 42.5847 42.1704 41.9205 42.3448C41.0669 42.5686 40.8204 44.5934 40.6517 45.296C39.8941 48.4295 40.029 51.4562 41.4898 54.3788C42.4965 56.3932 43.9235 58.1395 45.4025 59.8207C46.3236 60.8669 47.2888 61.8715 48.2981 62.8344C49.2321 63.7245 50.2882 64.5052 51.1911 65.4213C53.0021 67.0479 54.1983 68.9633 55.1842 71.1885C55.7732 72.521 55.9963 74.0409 55.7706 75.4853C55.6357 76.3389 55.371 77.1613 55.179 78.0019C55.0908 78.3897 55.0389 78.78 54.9377 79.1652C54.8339 79.553 54.7094 79.933 54.6341 80.3285C54.6264 80.3728 54.6134 80.4144 54.6264 80.4561C54.7172 80.4118 54.7691 80.201 54.808 80.1099C54.8936 79.9043 54.9714 79.6961 55.0519 79.4853C55.166 79.1834 55.2543 78.8607 55.3918 78.5692C55.5267 78.283 55.6616 77.9941 55.7939 77.7078C56.043 77.1743 56.2947 76.6434 56.5204 76.0995C57.0783 74.7644 57.81 73.4917 58.5079 72.2269C59.2474 70.8866 60.0491 69.5801 60.9105 68.3153C62.3013 66.2749 63.9125 64.3751 64.7817 62.0302C65.0568 61.2755 65.4485 60.0862 64.8232 59.4069Z" fill="#7EE8BF"/>
<path d="M65.2564 74.5924C67.499 74.5924 69.317 72.7688 69.317 70.5194C69.317 68.27 67.499 66.4465 65.2564 66.4465C63.0138 66.4465 61.1958 68.27 61.1958 70.5194C61.1958 72.7688 63.0138 74.5924 65.2564 74.5924Z" fill="#7EE8BF"/>
<path d="M66.7864 74.2985C66.3947 74.4182 65.9899 74.5301 65.5825 74.5717C65.1856 74.6134 64.7912 74.5743 64.402 74.4936C64.0128 74.413 63.6366 74.2672 63.2889 74.072C63.141 73.9888 62.9983 73.8951 62.8634 73.7962C62.744 73.7077 62.6273 73.614 62.5157 73.5151C62.2822 73.3095 62.072 73.0909 61.8904 72.8358C61.426 72.1826 61.1976 71.4149 61.2002 70.6159C61.2054 69.0258 62.0694 67.4877 63.5432 66.8344C63.6703 66.7772 63.8026 66.7277 63.935 66.6861C64.0361 66.6549 64.1581 66.6288 64.2411 66.6939C64.3267 66.7616 64.3319 66.8891 64.3086 66.9958C64.2593 67.2196 64.1166 67.4122 63.9557 67.5762C63.7948 67.7401 63.6106 67.878 63.4472 68.0368C62.8789 68.5937 62.5806 69.4187 62.6688 70.2099C62.7207 70.6836 62.8971 71.1312 63.1929 71.5033C63.4186 71.787 63.6988 72.0265 63.9894 72.2451C64.8249 72.8645 65.8212 73.4396 66.8928 73.3459C66.9577 73.3407 67.0226 73.3329 67.0848 73.3407C67.2587 73.3641 67.4559 73.5776 67.4559 73.7571C67.4585 73.9263 66.828 74.2854 66.7864 74.2985Z" fill="#59C09C"/>
<path d="M64.6669 33.3271C64.698 33.3765 64.7318 33.4208 64.7681 33.4624C65.8786 34.7793 66.7452 36.4449 67.342 38.0584C67.9361 39.6668 68.0788 41.8894 67.4821 43.5498C67.5366 43.4014 68.2138 42.7742 68.3357 42.6675C68.8365 42.2173 69.275 41.6942 69.6252 41.1164C70.7046 39.3259 70.702 37.2517 69.6693 35.4767C68.7379 33.8762 67.6014 32.208 66.0498 31.154C66.0343 31.1436 66.0187 31.1331 66.0031 31.1227C65.7514 30.9536 65.2351 30.9952 64.9808 31.1149C64.1532 31.5027 64.2388 32.679 64.6669 33.3271Z" fill="#E9B309"/>
<path d="M76.4042 56.5207C77.0632 57.6008 77.5069 58.7953 78.1296 59.8962C78.4513 60.4635 78.8172 61.0075 79.2712 61.4785C79.702 61.9262 80.252 62.2775 80.5037 62.8709C80.6204 63.1467 80.6308 63.4877 80.2728 63.5345C79.606 63.6204 78.6823 62.9099 78.1452 62.5768C75.9916 61.2443 74.2195 59.3705 72.9196 57.2C72.9196 57.2 70.1018 52.1407 68.7163 52.1121C71.3654 52.1693 75.029 54.2695 76.4042 56.5207Z" fill="#E9B309"/>
<path d="M70.4228 38.0062C70.4695 38.0088 69.6081 40.411 69.4965 40.6374C69.071 41.4936 68.5339 42.2952 67.9034 43.0135C66.6424 44.4501 65 45.5405 63.1682 46.087C61.6296 46.5477 60.0261 46.5581 58.4382 46.644C55.8851 46.7793 53.2749 46.7741 50.7451 46.3785C49.0768 46.1183 47.4707 45.4989 46.0048 44.6661C45.2679 44.2471 44.5621 43.7734 43.8953 43.2503C43.6125 43.0291 42.5799 41.8241 42.2374 42.4227C41.7989 43.1904 43.0651 44.7858 43.4439 45.4C45.1408 48.1404 47.3851 50.1652 50.4857 51.1698C52.6237 51.862 54.8654 52.0676 57.0968 52.1873C58.4849 52.2628 59.8782 52.2758 61.2689 52.2316C62.5559 52.19 63.8506 51.9818 65.1375 51.9765C67.5635 51.8204 69.7638 52.3097 72.0366 53.1659C73.3988 53.6786 74.6339 54.5869 75.5005 55.7606C76.0116 56.4555 76.4112 57.2206 76.8756 57.9493C77.0884 58.2824 77.3323 58.5947 77.5321 58.9383C77.7344 59.2844 77.9187 59.641 78.1444 59.9715C78.1703 60.0105 78.1911 60.047 78.2274 60.0678C78.2586 59.9715 78.147 59.7867 78.1081 59.6956C78.0224 59.49 77.929 59.287 77.8356 59.084C77.7007 58.7899 77.5346 58.5011 77.4231 58.1992C77.3141 57.9025 77.2025 57.6058 77.0936 57.3065C76.8886 56.7548 76.6862 56.203 76.4605 55.6591C75.9026 54.324 75.5108 52.9082 75.1009 51.5211C74.6676 50.0533 74.3017 48.562 74.006 47.0604C73.5311 44.6374 73.3132 42.1494 72.2546 39.8852C71.9173 39.1513 71.3465 38.0375 70.4228 38.0062Z" fill="#FFDD4D"/>
<path d="M78.6243 49.564C80.8669 49.564 82.6849 47.7405 82.6849 45.491C82.6849 43.2416 80.8669 41.4181 78.6243 41.4181C76.3817 41.4181 74.5637 43.2416 74.5637 45.491C74.5637 47.7405 76.3817 49.564 78.6243 49.564Z" fill="#FFDD4D"/>
<path opacity="0.4" d="M82.3787 47.0476C82.1893 47.4119 81.9843 47.7789 81.7274 48.1016C81.4783 48.4139 81.1748 48.669 80.8426 48.8902C80.5105 49.1114 80.1447 49.278 79.7633 49.3899C79.5998 49.4367 79.4338 49.4731 79.2677 49.5018C79.1198 49.5252 78.9745 49.5434 78.824 49.5538C78.5153 49.5746 78.2117 49.5746 77.9029 49.5252C77.1142 49.3977 76.4058 49.0229 75.8402 48.4634C74.7141 47.3469 74.2264 45.6474 74.7946 44.1354C74.8439 44.0052 74.901 43.8751 74.9632 43.7528C75.0125 43.6565 75.08 43.555 75.1838 43.5394C75.2927 43.5238 75.3887 43.6123 75.4458 43.7034C75.5704 43.8959 75.6067 44.1328 75.6093 44.3618C75.6119 44.5908 75.5807 44.8198 75.5807 45.0489C75.5782 45.8452 75.9544 46.6364 76.5797 47.1309C76.9533 47.425 77.3918 47.6149 77.8666 47.6644C78.2273 47.7034 78.5931 47.6696 78.9538 47.6149C79.9786 47.4536 81.0865 47.1439 81.7741 46.3111C81.8156 46.2616 81.8546 46.2096 81.9064 46.1705C82.044 46.0612 82.3346 46.0716 82.4617 46.1966C82.5888 46.3085 82.3994 47.0086 82.3787 47.0476Z" fill="#E9B309"/>
<path d="M51.905 19.9373C51.9621 19.9477 52.0165 19.9555 52.071 19.9607C53.7861 20.083 55.5816 20.6243 57.1487 21.3218C58.7107 22.0193 60.3972 23.4689 61.1652 25.0564C61.0977 24.9159 61.1237 23.9894 61.1315 23.828C61.16 23.154 61.0951 22.4747 60.9265 21.8215C60.4024 19.7967 58.9208 18.3497 56.9334 17.8526C55.1405 17.4024 53.1556 17.0537 51.3212 17.4336C51.303 17.4362 51.2849 17.4414 51.2667 17.4441C50.9709 17.5065 50.6414 17.9073 50.548 18.1728C50.2444 19.0316 51.1447 19.7915 51.905 19.9373Z" fill="#BA9808"/>
<path d="M76.6545 27.7058C77.887 27.9868 79.0493 28.5021 80.2688 28.8248C80.8993 28.9914 81.5428 29.1059 82.194 29.1111C82.8141 29.1137 83.4498 28.9654 84.0466 29.1996C84.3242 29.3063 84.5759 29.5379 84.3579 29.8294C83.9532 30.3681 82.8012 30.5347 82.1888 30.6882C79.7343 31.3024 77.1605 31.2686 74.7033 30.683C74.7033 30.683 69.1275 29.1736 68.1364 30.1495C70.0304 28.2835 74.0884 27.1228 76.6545 27.7058Z" fill="#D8AE00"/>
<path d="M59.2672 19.0734C59.3009 19.0395 60.414 21.3376 60.497 21.5744C60.811 22.4775 61.0082 23.4222 61.0808 24.3773C61.2261 26.285 60.8551 28.2264 59.9677 29.9233C59.2205 31.3495 58.11 32.5076 57.0617 33.7073C55.3778 35.6358 53.5486 37.5044 51.4989 39.0451C50.1471 40.0627 48.5851 40.781 46.966 41.252C46.1513 41.4889 45.3211 41.6632 44.4804 41.7777C44.1249 41.8272 42.5422 41.7257 42.7316 42.3893C42.9729 43.2404 44.9941 43.446 45.6999 43.6021C48.8394 44.297 51.8543 44.0992 54.7344 42.5767C56.7218 41.5253 58.4343 40.0601 60.0793 38.5402C61.1016 37.5955 62.0849 36.6065 63.0242 35.5759C63.8934 34.6208 64.6484 33.546 65.5436 32.6195C67.1263 30.7691 69.0126 29.5303 71.2102 28.4971C72.5283 27.8777 74.0384 27.6227 75.481 27.8204C76.3346 27.9376 77.1597 28.1874 78.003 28.3618C78.3895 28.4424 78.7813 28.4867 79.1679 28.5804C79.5545 28.6767 79.9385 28.7938 80.3329 28.8615C80.377 28.8693 80.4211 28.8797 80.4601 28.8667C80.4134 28.7756 80.2032 28.7287 80.1098 28.6923C79.9022 28.6116 79.692 28.5361 79.4845 28.4607C79.1809 28.354 78.8592 28.2707 78.5634 28.138C78.2754 28.0104 77.9848 27.8803 77.6968 27.7528C77.1597 27.5133 76.6252 27.2739 76.0803 27.0579C74.7389 26.5244 73.4546 25.8165 72.178 25.1425C70.8262 24.4268 69.5082 23.6512 68.229 22.8132C66.1689 21.4625 64.2411 19.8828 61.8851 19.0604C61.1249 18.8001 59.9314 18.4306 59.2672 19.0734Z" fill="#F5CD00"/>
<path d="M70.3355 22.4826C72.5781 22.4826 74.3961 20.659 74.3961 18.4096C74.3961 16.1602 72.5781 14.3367 70.3355 14.3367C68.0929 14.3367 66.2749 16.1602 66.2749 18.4096C66.2749 20.659 68.0929 22.4826 70.3355 22.4826Z" fill="#F5CD00"/>
<path d="M74.0684 16.8014C74.1955 17.1918 74.3149 17.5951 74.3642 18.0037C74.4135 18.4019 74.3823 18.7975 74.3097 19.1879C74.237 19.5809 74.0995 19.9608 73.9127 20.3122C73.8323 20.4631 73.7441 20.6063 73.6455 20.7468C73.5598 20.8691 73.469 20.9862 73.373 21.1007C73.1732 21.3376 72.9605 21.5536 72.7088 21.741C72.0679 22.2198 71.3051 22.4645 70.5112 22.4801C68.9258 22.5087 67.3743 21.6707 66.6919 20.2055C66.6322 20.0779 66.5803 19.9478 66.5362 19.8151C66.5025 19.7136 66.4765 19.5939 66.5388 19.508C66.6037 19.4195 66.7334 19.4117 66.8398 19.4325C67.0629 19.4794 67.2601 19.6147 67.4236 19.7735C67.587 19.9322 67.7297 20.1144 67.8932 20.2731C68.4588 20.8327 69.2891 21.1138 70.0753 21.0096C70.5449 20.9472 70.9886 20.7624 71.3544 20.4579C71.6346 20.2237 71.8656 19.94 72.0757 19.6433C72.6777 18.7949 73.2277 17.7825 73.1136 16.7077C73.1058 16.6426 73.098 16.5776 73.1058 16.5151C73.124 16.3407 73.3341 16.1377 73.5131 16.1351C73.6844 16.1351 74.0554 16.7597 74.0684 16.8014Z" fill="#D8AE00"/>
<path d="M38.46 14.1594C38.4626 14.1126 40.8548 14.9844 41.0779 15.0963C41.929 15.5257 42.7281 16.0671 43.4416 16.7021C44.8687 17.9721 45.9506 19.6221 46.4903 21.4621C46.9444 23.0054 46.9496 24.6137 47.03 26.2091C47.1571 28.77 47.1416 31.3881 46.7394 33.9255C46.4748 35.599 45.8521 37.2047 45.0166 38.6751C44.5963 39.4143 44.1214 40.1195 43.5973 40.7858C43.3742 41.0695 42.1703 42.1027 42.767 42.4462C43.5325 42.8886 45.1256 41.6238 45.7379 41.2438C48.4752 39.5522 50.5016 37.3062 51.5135 34.1988C52.2115 32.0543 52.4242 29.8084 52.5514 27.5702C52.6292 26.1778 52.65 24.7803 52.6085 23.3853C52.5695 22.0945 52.3672 20.7932 52.3672 19.505C52.2193 17.0716 52.7148 14.8647 53.5762 12.5901C54.0926 11.2264 55.0007 9.99018 56.1735 9.12355C56.8662 8.61085 57.6342 8.21266 58.3581 7.75202C58.6929 7.53861 59.0042 7.29658 59.3467 7.09618C59.6918 6.89319 60.0472 6.71101 60.3794 6.48459C60.4183 6.45857 60.4546 6.43775 60.4754 6.40131C60.3794 6.37008 60.1951 6.48199 60.1043 6.51842C59.8994 6.60431 59.697 6.698 59.4946 6.78909C59.2014 6.92442 58.9134 7.08838 58.6098 7.20028C58.314 7.30959 58.0157 7.4189 57.7199 7.5282C57.1698 7.7312 56.6172 7.93159 56.0749 8.15801C54.7412 8.71235 53.3272 9.10012 51.9442 9.50611C50.4783 9.93553 48.9915 10.2973 47.4919 10.5888C45.0737 11.0572 42.5958 11.268 40.3307 12.322C39.6042 12.6656 38.4911 13.2329 38.46 14.1594Z" fill="#FDAB44"/>
<path d="M96.7248 1.2356H117.519V2.33252H116.481C114.916 2.33252 113.842 2.49494 113.258 2.82202C112.674 3.14909 112.257 3.59854 112.01 4.17037C111.762 4.74441 111.638 6.17731 111.638 8.47128V28.1625C111.638 31.7603 111.909 34.1433 112.453 35.3092C112.997 36.4751 113.893 37.4452 115.141 38.215C116.389 38.9871 117.963 39.372 119.864 39.372C122.041 39.372 123.898 38.8825 125.434 37.9035C126.967 36.9245 128.117 35.5762 128.879 33.8563C129.642 32.1363 130.023 29.1415 130.023 24.8717V8.47128C130.023 6.67349 129.833 5.38744 129.459 4.61536C129.082 3.84329 128.607 3.31152 128.032 3.01337C127.141 2.55947 125.884 2.33252 124.259 2.33252V1.2356H138.191V2.33252H137.36C136.232 2.33252 135.289 2.55947 134.538 3.01337C133.785 3.46949 133.241 4.15034 132.905 5.06036C132.646 5.69226 132.519 6.82924 132.519 8.47128V23.7437C132.519 28.4695 132.207 31.8805 131.583 33.9742C130.959 36.0701 129.439 37.997 127.023 39.7569C124.607 41.5169 121.308 42.3958 117.131 42.3958C113.646 42.3958 110.953 41.9308 109.052 41.0029C106.458 39.7369 104.626 38.1171 103.556 36.1391C102.486 34.1611 101.951 31.5022 101.951 28.1625V8.47128C101.951 6.15729 101.822 4.71994 101.566 4.15702C101.307 3.59409 100.861 3.14464 100.228 2.80867C99.5954 2.47269 98.4253 2.31472 96.7225 2.33474V1.2356H96.7248Z" fill="black"/>
<path d="M117.135 42.6201C113.631 42.6201 110.881 42.144 108.957 41.205C106.332 39.9256 104.451 38.2569 103.363 36.2477C102.28 34.2475 101.732 31.5285 101.732 28.1643V8.47311C101.732 5.64514 101.533 4.61719 101.366 4.25006C101.13 3.73609 100.713 3.31557 100.127 3.00407C99.5296 2.68812 98.3862 2.53682 96.728 2.55462L96.5029 2.55684V1.0127H117.743V2.55462H116.479C114.959 2.55462 113.912 2.71037 113.366 3.01519C112.829 3.31557 112.441 3.73387 112.214 4.25896C111.98 4.80186 111.861 6.21919 111.861 8.47088V28.1621C111.861 31.711 112.129 34.085 112.657 35.2153C113.181 36.3367 114.057 37.2824 115.26 38.0255C116.466 38.7709 118.015 39.1491 119.867 39.1491C121.991 39.1491 123.826 38.6663 125.317 37.7162C126.805 36.7662 127.938 35.4356 128.678 33.7646C129.424 32.0803 129.801 29.0877 129.801 24.8691V8.47088C129.801 6.71536 129.618 5.45156 129.259 4.71286C128.907 3.98974 128.459 3.48467 127.931 3.21099C127.077 2.77489 125.843 2.55462 124.26 2.55462H124.037V1.0127H138.415V2.55462H137.361C136.278 2.55462 135.366 2.77267 134.655 3.20432C133.951 3.63151 133.432 4.28121 133.115 5.13784C132.868 5.74749 132.743 6.86666 132.743 8.47088V23.7433C132.743 28.4691 132.424 31.9335 131.798 34.0383C131.163 36.1721 129.6 38.1568 127.155 39.9368C124.713 41.7168 121.34 42.6201 117.135 42.6201ZM97.0111 2.10739C98.6114 2.10739 99.7012 2.27204 100.336 2.61024C101.012 2.96847 101.495 3.45797 101.772 4.06316C102.046 4.66169 102.177 6.10349 102.177 8.47088V28.1621C102.177 31.4506 102.708 34.0984 103.755 36.0341C104.796 37.961 106.613 39.5652 109.153 40.8045C111.017 41.7145 113.702 42.1751 117.135 42.1751C121.245 42.1751 124.53 41.3007 126.895 39.5785C129.259 37.8564 130.766 35.9496 131.372 33.9115C131.987 31.8467 132.299 28.4269 132.299 23.7433V8.47088C132.299 6.78433 132.431 5.64291 132.703 4.97764C133.053 4.03201 133.634 3.30444 134.428 2.82384C135.212 2.34992 136.2 2.10962 137.365 2.10962H137.974V1.45769H124.487V2.11184C126.034 2.13187 127.262 2.36994 128.138 2.81717C128.753 3.13534 129.266 3.70717 129.663 4.51929C130.057 5.32919 130.249 6.62191 130.249 8.47088V24.8713C130.249 29.1522 129.859 32.2049 129.085 33.9471C128.308 35.7004 127.12 37.0955 125.555 38.0922C123.99 39.089 122.076 39.5941 119.865 39.5941C117.93 39.5941 116.301 39.1936 115.024 38.4037C113.745 37.6139 112.811 36.6037 112.251 35.4022C111.688 34.1963 111.413 31.8267 111.413 28.1621V8.47088C111.413 6.12351 111.54 4.68839 111.803 4.08319C112.069 3.46687 112.521 2.97737 113.147 2.62804C113.772 2.28094 114.861 2.10962 116.479 2.10962H117.297V1.45769H96.9487V2.10962C96.9687 2.10739 96.9888 2.10739 97.0111 2.10739Z" fill="black"/>
<path d="M180.827 20.1258C184.649 21.0158 187.332 22.0927 188.877 23.3587C191.095 25.1587 192.205 27.4905 192.205 30.3563C192.205 33.3801 190.988 35.8832 188.552 37.859C185.561 40.2509 181.214 41.4479 175.511 41.4479H155.044V40.351C156.905 40.351 158.169 40.1774 158.831 39.8326C159.495 39.4877 159.959 39.036 160.226 38.4842C160.493 37.9302 160.627 36.5663 160.627 34.3925V8.29325C160.627 6.11943 160.493 4.74884 160.226 4.18591C159.959 3.62299 159.488 3.17354 158.815 2.83757C158.142 2.50159 156.885 2.33472 155.042 2.33472V1.23779H174.35C178.963 1.23779 182.231 1.64719 184.152 2.46822C186.073 3.28924 187.589 4.51521 188.696 6.14613C189.804 7.77706 190.359 9.51255 190.359 11.3504C190.359 13.2884 189.655 15.0127 188.251 16.5257C186.847 18.0343 184.373 19.2358 180.827 20.1258ZM170.015 21.6388V34.5393L169.986 36.0234C169.986 37.0914 170.258 37.8968 170.802 38.4397C171.345 38.9826 172.152 39.2541 173.222 39.2541C174.807 39.2541 176.267 38.9025 177.604 38.2016C178.941 37.5008 179.966 36.4817 180.677 35.1467C181.39 33.8117 181.747 32.3254 181.747 30.6834C181.747 28.8055 181.31 27.1189 180.441 25.626C179.57 24.133 178.37 23.0895 176.846 22.4976C175.322 21.9058 173.044 21.6188 170.015 21.6388ZM170.015 19.3248C172.828 19.3248 174.9 19.0088 176.238 18.3747C177.575 17.7428 178.6 16.8528 179.311 15.7047C180.024 14.5588 180.381 13.0948 180.381 11.3148C180.381 9.5348 180.029 8.07743 179.327 6.94046C178.622 5.80348 177.619 4.93796 176.311 4.34611C175.005 3.75649 172.906 3.46946 170.015 3.48949V19.3248Z" fill="black"/>
<path d="M175.511 41.67H154.821V40.1281H155.044C156.86 40.1281 158.099 39.9612 158.728 39.6342C159.345 39.3116 159.782 38.8933 160.025 38.386C160.277 37.8653 160.404 36.5214 160.404 34.3899V8.29288C160.404 6.16134 160.277 4.81076 160.025 4.28121C159.782 3.76724 159.341 3.34894 158.715 3.03522C158.075 2.71704 156.84 2.55462 155.042 2.55462H154.819V1.0127H174.35C178.972 1.0127 182.3 1.43322 184.241 2.26092C186.193 3.09529 187.753 4.35909 188.883 6.01894C190.013 7.68101 190.586 9.47436 190.586 11.3478C190.586 13.3347 189.857 15.1258 188.418 16.6744C187.105 18.0873 184.858 19.2421 181.733 20.1165C185.123 20.9709 187.573 22.0011 189.019 23.187C191.282 25.0204 192.427 27.4345 192.427 30.3582C192.427 33.4398 191.17 36.0208 188.692 38.0344C185.674 40.4463 181.239 41.67 175.511 41.67ZM155.264 41.225H175.508C181.134 41.225 185.473 40.0347 188.411 37.6851C190.78 35.7627 191.981 33.2974 191.981 30.3559C191.981 27.5725 190.889 25.2763 188.736 23.5297C187.223 22.2903 184.546 21.2179 180.775 20.3412L179.879 20.1321L180.771 19.9074C184.256 19.0329 186.719 17.8403 188.088 16.3674C189.447 14.9056 190.138 13.2146 190.138 11.3434C190.138 9.5589 189.592 7.85011 188.513 6.26369C187.435 4.67726 185.937 3.46687 184.065 2.66587C182.179 1.86042 178.912 1.45325 174.35 1.45325H155.264V2.10739C157.036 2.12074 158.231 2.29207 158.913 2.63472C159.628 2.99294 160.139 3.48244 160.426 4.08764C160.712 4.68616 160.85 6.06121 160.85 8.29066V34.3876C160.85 36.6171 160.712 37.9877 160.426 38.5773C160.139 39.1714 159.637 39.6609 158.933 40.0258C158.258 40.3773 157.056 40.5553 155.264 40.5687V41.225ZM173.222 39.4762C172.096 39.4762 171.227 39.1803 170.643 38.5951C170.057 38.0122 169.76 37.1444 169.76 36.0208L169.789 34.5323V21.4159L170.01 21.4137C173.057 21.3914 175.381 21.6896 176.926 22.2881C178.491 22.8978 179.739 23.9813 180.632 25.5121C181.519 27.034 181.97 28.7717 181.97 30.6808C181.97 32.3518 181.602 33.887 180.873 35.2487C180.142 36.6171 179.077 37.6762 177.706 38.3949C176.347 39.1135 174.835 39.4762 173.222 39.4762ZM170.237 21.8587V34.5367L170.208 36.0252C170.208 37.022 170.46 37.783 170.96 38.2792C171.459 38.7776 172.219 39.029 173.224 39.029C174.764 39.029 176.204 38.6841 177.501 38.001C178.791 37.3246 179.794 36.3278 180.483 35.0396C181.176 33.7446 181.526 32.2783 181.526 30.6808C181.526 28.8518 181.096 27.1875 180.249 25.7368C179.407 24.2951 178.237 23.276 176.766 22.7042C175.321 22.1435 173.146 21.8587 170.295 21.8587C170.275 21.8587 170.255 21.8587 170.237 21.8587ZM170.015 19.5469H169.792V3.26662L170.012 3.26439C172.925 3.24882 175.074 3.54029 176.404 4.14549C177.746 4.75514 178.794 5.65626 179.516 6.82661C180.238 7.99473 180.603 9.50551 180.603 11.3167C180.603 13.13 180.231 14.6452 179.5 15.8223C178.767 17.0015 177.702 17.9271 176.331 18.5746C174.974 19.2198 172.847 19.5469 170.015 19.5469ZM170.237 3.70939V19.0997C172.892 19.0841 174.878 18.7726 176.141 18.1719C177.432 17.56 178.435 16.69 179.121 15.5864C179.808 14.4806 180.158 13.0432 180.158 11.3144C180.158 9.58561 179.814 8.15493 179.137 7.05801C178.459 5.96554 177.479 5.12004 176.219 4.54821C174.989 3.98974 172.992 3.70717 170.282 3.70717C170.266 3.70939 170.253 3.70939 170.237 3.70939Z" fill="black"/>
<path d="M248.848 0.765381V14.7028H247.689C246.818 11.0649 245.193 8.27697 242.817 6.34122C240.441 4.40325 237.747 3.43537 234.738 3.43537C232.222 3.43537 229.915 4.1585 227.815 5.6003C225.716 7.04432 224.18 8.93111 223.211 11.2651C221.963 14.2511 221.339 17.573 221.339 21.2287C221.339 24.8265 221.793 28.1039 222.705 31.0587C223.616 34.0135 225.041 36.2474 226.982 37.7604C228.923 39.2734 231.437 40.0299 234.526 40.0299C237.06 40.0299 239.383 39.4759 241.491 38.37C243.6 37.262 245.824 35.3552 248.16 32.6473V36.1183C245.902 38.4702 243.551 40.1767 241.106 41.2336C238.658 42.2905 235.803 42.82 232.536 42.82C228.239 42.82 224.421 41.9612 221.085 40.2413C217.748 38.5213 215.174 36.0494 213.362 32.8276C211.55 29.6058 210.643 26.1748 210.643 22.537C210.643 18.7011 211.648 15.0632 213.658 11.6234C215.669 8.18352 218.381 5.51575 221.798 3.61782C225.214 1.7199 228.843 0.769831 232.685 0.769831C235.518 0.769831 238.507 1.3817 241.656 2.60768C243.477 3.31967 244.636 3.67567 245.131 3.67567C245.764 3.67567 246.314 3.44428 246.78 2.97925C247.246 2.51423 247.547 1.77775 247.687 0.769831H248.848V0.765381Z" fill="black"/>
<path d="M232.542 43.0377C228.229 43.0377 224.34 42.161 220.988 40.4322C217.627 38.7012 214.997 36.1758 213.171 32.9295C211.348 29.6899 210.425 26.19 210.425 22.5299C210.425 18.6717 211.451 14.9627 213.472 11.505C215.491 8.04739 218.26 5.32622 221.696 3.41718C225.131 1.51035 228.828 0.54248 232.691 0.54248C235.537 0.54248 238.584 1.16548 241.744 2.3959C243.971 3.26588 244.82 3.44833 245.139 3.44833C245.716 3.44833 246.204 3.2414 246.63 2.81643C247.058 2.38923 247.341 1.68835 247.472 0.733829L247.499 0.54248H249.075V14.9249H247.517L247.477 14.7535C246.621 11.1824 245.007 8.40784 242.68 6.51214C240.356 4.61645 237.683 3.65525 234.741 3.65525C232.285 3.65525 229.999 4.36947 227.946 5.78012C225.893 7.19299 224.371 9.06422 223.421 11.3471C222.191 14.2907 221.567 17.6149 221.567 21.226C221.567 24.786 222.024 28.0724 222.924 30.9916C223.818 33.8885 225.231 36.1068 227.126 37.5842C229.018 39.0594 231.51 39.8048 234.534 39.8048C237.021 39.8048 239.33 39.2552 241.397 38.1694C243.472 37.0814 245.694 35.1723 248 32.4979L248.393 32.044V36.2025L248.33 36.267C246.064 38.63 243.665 40.3677 241.203 41.4335C238.738 42.4992 235.825 43.0377 232.542 43.0377ZM232.691 0.98748C228.904 0.98748 225.278 1.93533 221.913 3.80655C218.547 5.67555 215.837 8.34332 213.858 11.7298C211.876 15.1184 210.873 18.7541 210.873 22.5299C210.873 26.1121 211.778 29.5386 213.564 32.7115C215.347 35.8799 217.914 38.3452 221.195 40.0362C224.485 41.7316 228.302 42.5905 232.544 42.5905C235.764 42.5905 238.619 42.0631 241.027 41.0218C243.411 39.9917 245.738 38.3096 247.947 36.02V33.2366C245.743 35.7219 243.61 37.5108 241.604 38.5654C239.473 39.6846 237.093 40.252 234.534 40.252C231.409 40.252 228.824 39.4732 226.852 37.9358C224.883 36.4005 223.417 34.1088 222.499 31.1228C221.585 28.1614 221.124 24.8305 221.124 21.226C221.124 17.557 221.759 14.175 223.011 11.1757C223.994 8.81501 225.57 6.87482 227.694 5.41522C229.822 3.9534 232.194 3.21025 234.741 3.21025C237.79 3.21025 240.556 4.20482 242.963 6.16727C245.33 8.09634 246.98 10.8932 247.869 14.4799H248.629V0.98748H247.885C247.728 1.94423 247.412 2.66513 246.944 3.13237C246.438 3.63745 245.83 3.89332 245.139 3.89332C244.61 3.89332 243.447 3.53955 241.582 2.80975C238.472 1.60158 235.481 0.98748 232.691 0.98748Z" fill="black"/>
<path d="M96.5029 52.9152H102.055V53.2089H101.776C101.359 53.2089 101.072 53.2534 100.916 53.3401C100.76 53.4269 100.648 53.5471 100.584 53.7006C100.517 53.8541 100.486 54.2368 100.486 54.8487V60.1063C100.486 61.0675 100.559 61.7039 100.704 62.0154C100.849 62.3269 101.09 62.585 101.422 62.7919C101.754 62.9988 102.175 63.1012 102.683 63.1012C103.265 63.1012 103.76 62.9699 104.17 62.7096C104.58 62.4493 104.885 62.0888 105.09 61.6282C105.293 61.1699 105.396 60.3689 105.396 59.2297V54.8509C105.396 54.3703 105.344 54.0277 105.244 53.8207C105.144 53.6138 105.017 53.4714 104.863 53.3935C104.625 53.2712 104.29 53.2111 103.856 53.2111V52.9174H107.576V53.2111H107.353C107.052 53.2111 106.8 53.2712 106.599 53.3935C106.399 53.5159 106.254 53.6984 106.162 53.9409C106.093 54.11 106.06 54.4126 106.06 54.8509V58.9271C106.06 60.1887 105.977 61.0987 105.81 61.6594C105.643 62.2179 105.238 62.7341 104.593 63.2035C103.949 63.673 103.069 63.9089 101.952 63.9089C101.021 63.9089 100.303 63.7843 99.7948 63.5373C99.1017 63.1991 98.6136 62.7674 98.3283 62.2379C98.043 61.7106 97.9004 61.0008 97.9004 60.1086V54.8509C97.9004 54.2324 97.8647 53.8497 97.7978 53.6984C97.7288 53.5471 97.6106 53.4291 97.4412 53.3379C97.2719 53.2489 96.9598 53.2066 96.5052 53.2111V52.9152H96.5029Z" fill="black"/>
<path d="M115.076 57.9592C116.096 58.1973 116.812 58.4843 117.224 58.8225C117.817 59.3031 118.113 59.9261 118.113 60.6915C118.113 61.4992 117.788 62.1667 117.137 62.694C116.339 63.3326 115.178 63.653 113.656 63.653H108.191V63.3593C108.688 63.3593 109.024 63.3125 109.203 63.2213C109.379 63.1301 109.504 63.0099 109.575 62.8609C109.646 62.714 109.682 62.3491 109.682 61.7684V54.8019C109.682 54.2212 109.646 53.8563 109.575 53.705C109.504 53.5537 109.379 53.4358 109.198 53.3446C109.018 53.2556 108.683 53.2111 108.191 53.2111V52.9174H113.346C114.579 52.9174 115.45 53.0264 115.963 53.2467C116.475 53.4647 116.879 53.794 117.175 54.2279C117.472 54.664 117.619 55.1268 117.619 55.6163C117.619 56.1347 117.431 56.5931 117.055 56.998C116.683 57.4007 116.023 57.7211 115.076 57.9592ZM112.189 58.3619V61.8062L112.18 62.2023C112.18 62.4871 112.254 62.7029 112.399 62.8475C112.544 62.9921 112.76 63.0656 113.045 63.0656C113.469 63.0656 113.859 62.9721 114.215 62.7852C114.572 62.5983 114.846 62.3269 115.035 61.9709C115.225 61.6149 115.321 61.2166 115.321 60.7805C115.321 60.2799 115.205 59.8304 114.971 59.4299C114.739 59.0316 114.418 58.7535 114.01 58.5955C113.607 58.4331 112.998 58.3575 112.189 58.3619ZM112.189 57.7456C112.94 57.7456 113.493 57.661 113.85 57.4919C114.206 57.3228 114.481 57.0848 114.67 56.7799C114.859 56.4751 114.955 56.0835 114.955 55.6074C114.955 55.1312 114.862 54.7441 114.674 54.4393C114.487 54.1367 114.218 53.9053 113.87 53.7473C113.522 53.5893 112.96 53.5137 112.189 53.5181V57.7456V57.7456Z" fill="black"/>
<path d="M129.525 52.6699V56.3901H129.215C128.983 55.42 128.549 54.6747 127.914 54.1585C127.278 53.6423 126.561 53.3819 125.756 53.3819C125.085 53.3819 124.468 53.5755 123.908 53.9604C123.349 54.3454 122.939 54.8504 122.678 55.4734C122.346 56.27 122.179 57.1578 122.179 58.1345C122.179 59.0957 122.302 59.9702 122.544 60.76C122.787 61.5499 123.169 62.1462 123.686 62.5489C124.203 62.9516 124.876 63.1541 125.7 63.1541C126.378 63.1541 126.998 63.0073 127.559 62.7114C128.123 62.4154 128.716 61.9059 129.34 61.1828V62.1084C128.738 62.7358 128.11 63.192 127.457 63.4745C126.804 63.7571 126.041 63.8973 125.168 63.8973C124.02 63.8973 123.001 63.6681 122.11 63.2075C121.218 62.7492 120.532 62.0884 120.048 61.2273C119.565 60.3662 119.322 59.4517 119.322 58.4794C119.322 57.4559 119.589 56.4836 120.126 55.5669C120.663 54.648 121.388 53.936 122.299 53.4287C123.211 52.9214 124.18 52.6677 125.206 52.6677C125.961 52.6677 126.759 52.8324 127.602 53.1594C128.087 53.3486 128.397 53.4442 128.529 53.4442C128.698 53.4442 128.845 53.3819 128.968 53.2573C129.093 53.1327 129.173 52.9369 129.211 52.6677H129.525V52.6699Z" fill="black"/>
<path d="M140.421 63.3571V63.6508H134.797V63.3571H135.154C135.466 63.3571 135.718 63.3015 135.907 63.1902C136.046 63.1168 136.15 62.99 136.224 62.8097C136.282 62.6829 136.311 62.3514 136.311 61.8129V54.7508C136.311 54.2012 136.282 53.8586 136.224 53.7206C136.166 53.5827 136.048 53.4625 135.872 53.3602C135.693 53.2578 135.455 53.2067 135.154 53.2067H134.797V52.913H140.421V53.2067H140.064C139.752 53.2067 139.5 53.2623 139.311 53.3735C139.173 53.447 139.066 53.5738 138.985 53.754C138.927 53.8808 138.898 54.2124 138.898 54.7508V61.8129C138.898 62.3625 138.93 62.7052 138.99 62.8431C139.05 62.9811 139.17 63.1012 139.346 63.2036C139.522 63.3059 139.763 63.3571 140.064 63.3571H140.421Z" fill="black"/>
<path d="M144.838 52.9152L150.143 59.5724V54.9577C150.143 54.3147 150.049 53.8786 149.864 53.6517C149.61 53.3468 149.184 53.1978 148.587 53.2089V52.9152H152.14V53.2089C151.685 53.2667 151.379 53.3424 151.223 53.4336C151.067 53.5271 150.945 53.6761 150.858 53.8853C150.771 54.0944 150.726 54.4504 150.726 54.9577V63.8955H150.457L143.184 54.9577V61.7818C143.184 62.4003 143.325 62.8164 143.608 63.0322C143.891 63.2481 144.214 63.3571 144.579 63.3571H144.834V63.6508H141.02V63.3571C141.613 63.3526 142.025 63.2303 142.257 62.9922C142.489 62.7541 142.607 62.3514 142.607 61.7818V54.2057L142.377 53.9209C142.15 53.6361 141.95 53.4492 141.776 53.358C141.602 53.269 141.35 53.2178 141.022 53.2067V52.913H144.838V52.9152Z" fill="black"/>
<path d="M160.15 52.6699L160.237 56.2477H159.912C159.758 55.351 159.381 54.6279 158.782 54.0828C158.182 53.5354 157.534 53.264 156.834 53.264C156.295 53.264 155.867 53.4086 155.552 53.6956C155.238 53.9827 155.08 54.3142 155.08 54.6902C155.08 54.9283 155.136 55.1397 155.247 55.3243C155.401 55.5735 155.646 55.8183 155.985 56.0608C156.232 56.2344 156.807 56.5436 157.705 56.9864C158.962 57.605 159.812 58.1879 160.251 58.7353C160.683 59.2848 160.901 59.9123 160.901 60.6198C160.901 61.5165 160.552 62.2886 159.852 62.9361C159.152 63.5835 158.263 63.9061 157.184 63.9061C156.845 63.9061 156.526 63.8706 156.223 63.8038C155.922 63.7348 155.543 63.6058 155.089 63.4167C154.835 63.3121 154.625 63.2587 154.463 63.2587C154.324 63.2587 154.179 63.3121 154.026 63.4167C153.872 63.5235 153.747 63.6837 153.653 63.8995H153.359V59.8455H153.653C153.885 60.9847 154.333 61.8547 154.997 62.4532C155.662 63.0518 156.375 63.3521 157.141 63.3521C157.734 63.3521 158.205 63.1919 158.557 62.8693C158.909 62.5467 159.085 62.1729 159.085 61.7457C159.085 61.492 159.018 61.2473 158.882 61.0092C158.748 60.7711 158.541 60.5464 158.267 60.3328C157.993 60.1192 157.505 59.8411 156.807 59.4984C155.829 59.0178 155.127 58.6084 154.699 58.2702C154.271 57.932 153.941 57.556 153.711 57.1377C153.482 56.7216 153.366 56.2611 153.366 55.7604C153.366 54.906 153.68 54.1762 154.309 53.5755C154.937 52.9747 155.731 52.6721 156.687 52.6721C157.037 52.6721 157.373 52.7144 157.701 52.799C157.948 52.8613 158.251 52.9792 158.608 53.1505C158.965 53.3218 159.214 53.4086 159.357 53.4086C159.495 53.4086 159.602 53.3663 159.682 53.2818C159.763 53.1972 159.836 52.9948 159.905 52.6721H160.15V52.6699Z" fill="black"/>
<path d="M168.312 60.5932H164.514L164.061 61.639C163.914 61.9883 163.838 62.2753 163.838 62.5023C163.838 62.8026 163.961 63.0251 164.204 63.1675C164.347 63.2521 164.699 63.3144 165.258 63.3567V63.6504H161.681V63.3567C162.066 63.2988 162.383 63.1386 162.633 62.8783C162.88 62.618 163.188 62.0773 163.553 61.2585L167.4 52.6923H167.552L171.43 61.4966C171.8 62.3309 172.103 62.856 172.341 63.0719C172.522 63.2365 172.774 63.33 173.103 63.3567V63.6504H167.901V63.3567H168.115C168.532 63.3567 168.826 63.2988 168.996 63.1831C169.112 63.0986 169.17 62.9762 169.17 62.8182C169.17 62.7225 169.154 62.6246 169.123 62.5245C169.112 62.4778 169.034 62.2798 168.884 61.9304L168.312 60.5932ZM168.042 60.008L166.439 56.3101L164.79 60.008H168.042Z" fill="black"/>
<path d="M177.328 52.9152L182.632 59.5724V54.9577C182.632 54.3147 182.539 53.8786 182.354 53.6517C182.1 53.3468 181.674 53.1978 181.077 53.2089V52.9152H184.629V53.2089C184.175 53.2667 183.869 53.3424 183.713 53.4336C183.557 53.5271 183.435 53.6761 183.348 53.8853C183.261 54.0944 183.216 54.4504 183.216 54.9577V63.8955H182.947L175.674 54.9577V61.7818C175.674 62.4003 175.815 62.8164 176.098 63.0322C176.381 63.2481 176.704 63.3571 177.069 63.3571H177.323V63.6508H173.51V63.3571C174.103 63.3526 174.515 63.2303 174.747 62.9922C174.979 62.7541 175.097 62.3514 175.097 61.7818V54.2057L174.867 53.9209C174.64 53.6361 174.439 53.4492 174.266 53.358C174.092 53.269 173.84 53.2178 173.512 53.2067V52.913H177.328V52.9152Z" fill="black"/>
<path d="M195.838 57.0248L199.62 61.7507C200.155 62.4159 200.614 62.8676 201 63.1035C201.28 63.2726 201.575 63.3571 201.889 63.3571V63.6508H196.29V63.3571C196.645 63.326 196.874 63.2703 196.977 63.1902C197.079 63.1101 197.13 63.0145 197.13 62.8965C197.13 62.674 196.888 62.258 196.402 61.6461L193.934 58.5511L193.538 58.8827V61.8107C193.538 62.3692 193.569 62.7185 193.634 62.8565C193.696 62.9944 193.819 63.1124 193.999 63.208C194.18 63.3059 194.467 63.3549 194.864 63.3549V63.6486H189.439V63.3549H189.796C190.108 63.3549 190.359 63.2993 190.549 63.188C190.687 63.1146 190.792 62.9878 190.865 62.8075C190.923 62.6807 190.952 62.3492 190.952 61.8107V54.7486C190.952 54.199 190.923 53.8564 190.865 53.7184C190.807 53.5805 190.689 53.4603 190.513 53.358C190.335 53.2556 190.096 53.2045 189.796 53.2045H189.439V52.9108H194.792V53.2045C194.427 53.2045 194.151 53.2579 193.959 53.3624C193.821 53.4359 193.714 53.5605 193.634 53.734C193.571 53.8653 193.538 54.2035 193.538 54.7464V58.0883L197.527 54.8665C198.082 54.4171 198.361 54.0589 198.361 53.7896C198.361 53.5894 198.247 53.4314 198.02 53.3157C197.904 53.2579 197.616 53.22 197.155 53.2045V52.9108H201.35V53.2045C200.973 53.2312 200.679 53.2979 200.465 53.4069C200.251 53.516 199.758 53.8809 198.985 54.5039L195.838 57.0248Z" fill="black"/>
<path d="M208.46 60.5932H204.662L204.21 61.639C204.062 61.9883 203.987 62.2753 203.987 62.5023C203.987 62.8026 204.109 63.0251 204.352 63.1675C204.495 63.2521 204.847 63.3144 205.406 63.3567V63.6504H201.829V63.3567C202.215 63.2988 202.531 63.1386 202.781 62.8783C203.028 62.618 203.336 62.0773 203.701 61.2585L207.548 52.6923H207.7L211.578 61.4966C211.948 62.3309 212.251 62.856 212.489 63.0719C212.67 63.2365 212.922 63.33 213.252 63.3567V63.6504H208.05V63.3567H208.264C208.68 63.3567 208.975 63.2988 209.144 63.1831C209.26 63.0986 209.318 62.9762 209.318 62.8182C209.318 62.7225 209.302 62.6246 209.271 62.5245C209.26 62.4778 209.182 62.2798 209.033 61.9304L208.46 60.5932ZM208.19 60.008L206.588 56.3101L204.938 60.008H208.19Z" fill="black"/>
<path d="M223.491 52.9152V53.2089C223.137 53.2556 222.865 53.3602 222.676 53.5182C222.41 53.7407 221.994 54.3436 221.423 55.3315L219.092 59.2186V61.8152C219.092 62.3692 219.121 62.7141 219.179 62.8476C219.237 62.9811 219.352 63.1012 219.524 63.2036C219.696 63.3059 219.925 63.3571 220.211 63.3571H220.812V63.6508H214.777V63.3571H215.341C215.657 63.3571 215.909 63.3015 216.094 63.1902C216.232 63.1168 216.339 62.99 216.419 62.8097C216.477 62.6829 216.506 62.3514 216.506 61.8129V59.6592L213.977 55.0601C213.475 54.1523 213.121 53.6183 212.914 53.4559C212.706 53.2957 212.432 53.2111 212.089 53.2067V52.913H217.244V53.2067H217.014C216.702 53.2067 216.484 53.2512 216.359 53.3402C216.234 53.4292 216.172 53.5248 216.172 53.625C216.172 53.8141 216.384 54.2925 216.807 55.0579L218.751 58.6134L220.685 55.376C221.167 54.5839 221.407 54.0588 221.407 53.8007C221.407 53.6583 221.338 53.5404 221.2 53.4447C221.02 53.3135 220.69 53.2334 220.208 53.2067V52.913H223.491V52.9152Z" fill="black"/>
<path d="M227.716 52.9152L233.021 59.5724V54.9577C233.021 54.3147 232.927 53.8786 232.742 53.6517C232.488 53.3468 232.062 53.1978 231.465 53.2089V52.9152H235.018V53.2089C234.563 53.2667 234.258 53.3424 234.102 53.4336C233.946 53.5271 233.823 53.6761 233.736 53.8853C233.649 54.0944 233.605 54.4504 233.605 54.9577V63.8955H233.335L226.063 54.9577V61.7818C226.063 62.4003 226.203 62.8164 226.486 63.0322C226.769 63.2481 227.092 63.3571 227.458 63.3571H227.712V63.6508H223.898V63.3571C224.491 63.3526 224.904 63.2303 225.135 62.9922C225.367 62.7541 225.485 62.3514 225.485 61.7818V54.2057L225.256 53.9209C225.028 53.6361 224.828 53.4492 224.654 53.358C224.48 53.269 224.228 53.2178 223.901 53.2067V52.913H227.716V52.9152Z" fill="black"/>
<path d="M242.158 60.5932H238.36L237.908 61.639C237.761 61.9883 237.685 62.2753 237.685 62.5023C237.685 62.8026 237.808 63.0251 238.05 63.1675C238.193 63.2521 238.545 63.3144 239.105 63.3567V63.6504H235.527V63.3567C235.913 63.2988 236.23 63.1386 236.479 62.8783C236.727 62.618 237.034 62.0773 237.4 61.2585L241.247 52.6923H241.398L245.276 61.4966C245.646 62.3309 245.949 62.856 246.188 63.0719C246.368 63.2365 246.62 63.33 246.95 63.3567V63.6504H241.748V63.3567H241.962C242.379 63.3567 242.673 63.2988 242.842 63.1831C242.958 63.0986 243.016 62.9762 243.016 62.8182C243.016 62.7225 243.001 62.6246 242.969 62.5245C242.958 62.4778 242.88 62.2798 242.731 61.9304L242.158 60.5932ZM241.888 60.008L240.286 56.3101L238.637 60.008H241.888Z" fill="black"/>
<path d="M253.895 57.0248L257.677 61.7507C258.212 62.4159 258.671 62.8676 259.057 63.1035C259.338 63.2726 259.632 63.3571 259.944 63.3571V63.6508H254.345V63.3571C254.7 63.326 254.929 63.2703 255.032 63.1902C255.134 63.1101 255.185 63.0145 255.185 62.8965C255.185 62.674 254.942 62.258 254.457 61.6461L251.989 58.5511L251.593 58.8827V61.8107C251.593 62.3692 251.624 62.7185 251.688 62.8565C251.751 62.9944 251.873 63.1124 252.054 63.208C252.235 63.3059 252.522 63.3549 252.919 63.3549V63.6486H247.494V63.3549H247.85C248.163 63.3549 248.414 63.2993 248.604 63.188C248.742 63.1146 248.847 62.9878 248.92 62.8075C248.978 62.6807 249.007 62.3492 249.007 61.8107V54.7486C249.007 54.199 248.978 53.8564 248.92 53.7184C248.862 53.5805 248.744 53.4603 248.568 53.358C248.39 53.2556 248.151 53.2045 247.85 53.2045H247.494V52.9108H252.847V53.2045C252.482 53.2045 252.206 53.2579 252.014 53.3624C251.876 53.4359 251.769 53.5605 251.688 53.734C251.626 53.8653 251.593 54.2035 251.593 54.7464V58.0883L255.582 54.8665C256.137 54.4171 256.416 54.0589 256.416 53.7896C256.416 53.5894 256.302 53.4314 256.075 53.3157C255.959 53.2579 255.671 53.22 255.21 53.2045V52.9108H259.404V53.2045C259.028 53.2312 258.734 53.2979 258.52 53.4069C258.306 53.516 257.813 53.8809 257.04 54.5039L253.895 57.0248Z" fill="black"/>
<path d="M270.016 59.8817L269.613 63.6508H260.064V63.3571H260.421C260.733 63.3571 260.985 63.3015 261.174 63.1902C261.313 63.1168 261.417 62.99 261.491 62.8097C261.549 62.6829 261.578 62.3514 261.578 61.8129V54.7508C261.578 54.2012 261.549 53.8586 261.491 53.7206C261.433 53.5827 261.315 53.4625 261.139 53.3602C260.96 53.2578 260.722 53.2067 260.421 53.2067H260.064V52.913H265.797V53.2067H265.329C265.017 53.2067 264.765 53.2623 264.575 53.3735C264.437 53.447 264.33 53.5738 264.25 53.754C264.192 53.8808 264.163 54.2124 264.163 54.7508V61.5904C264.163 62.14 264.194 62.4893 264.259 62.6384C264.324 62.7875 264.446 62.901 264.631 62.9744C264.763 63.0211 265.084 63.0456 265.592 63.0456H266.488C267.058 63.0456 267.535 62.9455 267.914 62.7452C268.295 62.545 268.623 62.229 268.902 61.7951C269.18 61.3635 269.441 60.7249 269.691 59.8794H270.016V59.8817Z" fill="black"/>
<path d="M277.351 60.5932H273.553L273.101 61.639C272.954 61.9883 272.878 62.2753 272.878 62.5023C272.878 62.8026 273 63.0251 273.243 63.1675C273.386 63.2521 273.738 63.3144 274.298 63.3567V63.6504H270.72V63.3567C271.106 63.2988 271.423 63.1386 271.672 62.8783C271.92 62.618 272.227 62.0773 272.593 61.2585L276.44 52.6923H276.591L280.469 61.4966C280.839 62.3309 281.142 62.856 281.381 63.0719C281.561 63.2365 281.813 63.33 282.143 63.3567V63.6504H276.941V63.3567H277.155C277.572 63.3567 277.866 63.2988 278.035 63.1831C278.151 63.0986 278.209 62.9762 278.209 62.8182C278.209 62.7225 278.194 62.6246 278.162 62.5245C278.151 62.4778 278.073 62.2798 277.924 61.9304L277.351 60.5932ZM277.081 60.008L275.479 56.3101L273.83 60.008H277.081Z" fill="black"/>
<path d="M286.638 58.758V61.7662C286.638 62.3469 286.674 62.7118 286.745 62.8631C286.816 63.0144 286.941 63.1346 287.122 63.2236C287.302 63.3126 287.636 63.3571 288.129 63.3571V63.6508H282.626V63.3571C283.123 63.3571 283.46 63.3103 283.638 63.2191C283.814 63.1279 283.939 63.0077 284.01 62.8587C284.081 62.7118 284.117 62.3469 284.117 61.7662V54.7997C284.117 54.219 284.081 53.8541 284.01 53.7028C283.939 53.5515 283.814 53.4336 283.634 53.3424C283.453 53.2534 283.119 53.2089 282.626 53.2089V52.9152H287.623C288.925 52.9152 289.874 53.0042 290.478 53.1844C291.08 53.3646 291.572 53.6939 291.954 54.179C292.335 54.6618 292.524 55.2269 292.524 55.8766C292.524 56.6687 292.239 57.3229 291.668 57.8391C291.303 58.1662 290.792 58.4109 290.137 58.5756L292.722 62.209C293.061 62.6784 293.302 62.9721 293.445 63.0878C293.661 63.2525 293.913 63.3415 294.198 63.3571V63.6508H290.812L287.347 58.758H286.638V58.758ZM286.638 53.4937V58.1973H287.09C287.826 58.1973 288.374 58.1306 288.74 57.9948C289.105 57.8613 289.39 57.6188 289.6 57.2673C289.809 56.9157 289.914 56.4596 289.914 55.8944C289.914 55.0756 289.723 54.4727 289.339 54.0811C288.956 53.6917 288.338 53.4959 287.487 53.4959H286.638V53.4937Z" fill="black"/>
<path d="M300 63.3571V63.6508H294.377V63.3571H294.733C295.045 63.3571 295.297 63.3015 295.487 63.1902C295.625 63.1168 295.73 62.99 295.803 62.8097C295.861 62.6829 295.89 62.3514 295.89 61.8129V54.7508C295.89 54.2012 295.861 53.8586 295.803 53.7206C295.745 53.5827 295.627 53.4625 295.451 53.3602C295.273 53.2578 295.034 53.2067 294.733 53.2067H294.377V52.913H300V53.2067H299.643C299.331 53.2067 299.08 53.2623 298.89 53.3735C298.752 53.447 298.645 53.5738 298.565 53.754C298.507 53.8808 298.478 54.2124 298.478 54.7508V61.8129C298.478 62.3625 298.509 62.7052 298.569 62.8431C298.629 62.9811 298.75 63.1012 298.926 63.2036C299.102 63.3059 299.343 63.3571 299.643 63.3571H300Z" fill="black"/>
<path d="M137.622 51.9558C138.423 51.9558 139.073 51.3073 139.073 50.5073C139.073 49.7073 138.423 49.0588 137.622 49.0588C136.821 49.0588 136.171 49.7073 136.171 50.5073C136.171 51.3073 136.821 51.9558 137.622 51.9558Z" fill="black"/>
<path d="M97.3601 76.7752C97.3601 79.1638 98.5486 80.0552 100.126 80.0552C101.794 80.0552 103.029 79.0952 103.029 76.7295V72.2266H102.034V76.7981C102.034 78.4895 101.292 79.2438 100.16 79.2438C99.1201 79.2438 98.3658 78.5124 98.3658 76.7981V72.2266H97.3601V76.7752ZM106.351 79.9295H107.299V76.6381C107.299 75.3581 107.276 74.4324 107.219 73.4609L107.254 73.4495C107.631 74.2838 108.156 75.1638 108.694 76.0209L111.139 79.9295H112.145V72.2266H111.208V75.4609C111.208 76.6495 111.231 77.5866 111.322 78.6152L111.299 78.6381C110.922 77.8381 110.476 77.0266 109.916 76.1238L107.448 72.2266H106.351V79.9295ZM116.095 78.9924C116.849 79.7124 117.809 80.0095 118.975 80.0095C120.015 80.0095 120.895 79.7581 121.341 79.5866V75.8838H118.803V76.6838H120.358V78.9809C120.129 79.0952 119.695 79.1866 119.043 79.1866C117.238 79.1866 116.072 78.0324 116.072 76.0781C116.072 74.1466 117.295 72.9809 119.169 72.9809C119.946 72.9809 120.461 73.1295 120.872 73.3124L121.112 72.5009C120.781 72.3524 120.072 72.1466 119.192 72.1466C116.609 72.1466 115.021 73.8381 115.021 76.1238C115.021 77.3238 115.432 78.3524 116.095 78.9924ZM124.263 79.9295H125.211L125.417 76.6266C125.486 75.4609 125.531 74.1809 125.566 73.2324H125.588C125.806 74.1352 126.103 75.1295 126.48 76.2152L127.703 79.8838H128.491L129.828 76.1924C130.194 75.1638 130.548 74.1238 130.811 73.2324H130.846C130.834 74.1809 130.903 75.4838 130.971 76.5466L131.143 79.9295H132.126L131.646 72.2266H130.377L129.006 75.9524C128.651 76.9238 128.377 77.8266 128.194 78.6038H128.148C127.954 77.8038 127.703 76.9009 127.383 75.9638L126.068 72.2266H124.8L124.263 79.9295ZM141.183 77.0152L141.4 75.3581H142.588L142.371 77.0152H141.183ZM140.097 79.9295H140.783L141.08 77.6895H142.268L141.971 79.9295H142.657L142.954 77.6895H144.028V77.0152H143.057L143.263 75.3581H144.291V74.6838H143.366L143.651 72.5009H142.977L142.68 74.6838H141.491L141.777 72.5009H141.114L140.817 74.6838H139.731V75.3581H140.726L140.497 77.0152H139.457V77.7009H140.394L140.097 79.9295ZM152.031 79.9295H153.071L156.306 73.1638V72.5009H151.62V73.3352H155.254V73.3581L152.031 79.9295ZM158.931 79.9295H163.674V79.1066H160.348V79.0838L160.931 78.5238C162.508 77.0152 163.491 75.9066 163.491 74.5238C163.491 73.4724 162.828 72.3752 161.228 72.3752C160.371 72.3752 159.639 72.6952 159.125 73.1409L159.445 73.8381C159.788 73.5524 160.348 73.2095 161.022 73.2095C162.131 73.2095 162.485 73.9066 162.485 74.6609C162.485 75.7809 161.617 76.7524 159.731 78.5581L158.931 79.3124V79.9295ZM168.893 80.0552C170.447 80.0552 171.373 78.7981 171.373 77.4381C171.373 75.9866 170.447 75.0266 169.122 75.0266C168.31 75.0266 167.682 75.4152 167.327 75.8952H167.304C167.476 74.6724 168.31 73.5181 169.887 73.2666C170.184 73.2095 170.424 73.2095 170.642 73.2095V72.3866C170.447 72.3866 170.207 72.3866 169.91 72.4438C168.973 72.5581 168.15 72.9352 167.533 73.5409C166.79 74.2724 166.276 75.4381 166.276 76.9009C166.276 78.8209 167.316 80.0552 168.893 80.0552ZM168.904 79.2895C167.853 79.2895 167.293 78.3752 167.27 77.1524C167.27 76.9695 167.316 76.8209 167.373 76.7066C167.647 76.1695 168.219 75.7924 168.824 75.7924C169.75 75.7924 170.344 76.4324 170.344 77.4952C170.344 78.5695 169.773 79.2895 168.904 79.2895ZM173.827 79.5409C174.192 79.8038 174.924 80.0552 175.758 80.0552C177.53 80.0552 178.467 79.0152 178.467 77.8266C178.467 76.7866 177.724 76.1009 176.81 75.9295V75.9066C177.724 75.5752 178.192 74.9238 178.192 74.1466C178.192 73.2438 177.518 72.3752 176.055 72.3752C175.255 72.3752 174.501 72.6609 174.112 72.9466L174.375 73.6781C174.695 73.4495 175.267 73.1866 175.861 73.1866C176.787 73.1866 177.164 73.7124 177.164 74.3066C177.164 75.1866 176.238 75.5638 175.507 75.5638H174.947V76.3181H175.507C176.478 76.3181 177.415 76.7638 177.427 77.8038C177.438 78.4209 177.038 79.2438 175.747 79.2438C175.038 79.2438 174.387 78.9581 174.101 78.7752L173.827 79.5409ZM181.309 79.9295H186.052V79.1066H182.726V79.0838L183.309 78.5238C184.886 77.0152 185.869 75.9066 185.869 74.5238C185.869 73.4724 185.206 72.3752 183.606 72.3752C182.749 72.3752 182.017 72.6952 181.503 73.1409L181.823 73.8381C182.166 73.5524 182.726 73.2095 183.4 73.2095C184.509 73.2095 184.863 73.9066 184.863 74.6609C184.863 75.7809 183.995 76.7524 182.109 78.5581L181.309 79.3124V79.9295ZM188.745 79.5409C189.111 79.8038 189.843 80.0552 190.677 80.0552C192.448 80.0552 193.385 79.0152 193.385 77.8266C193.385 76.7866 192.643 76.1009 191.728 75.9295V75.9066C192.643 75.5752 193.111 74.9238 193.111 74.1466C193.111 73.2438 192.437 72.3752 190.974 72.3752C190.174 72.3752 189.42 72.6609 189.031 72.9466L189.294 73.6781C189.614 73.4495 190.185 73.1866 190.78 73.1866C191.705 73.1866 192.083 73.7124 192.083 74.3066C192.083 75.1866 191.157 75.5638 190.425 75.5638H189.865V76.3181H190.425C191.397 76.3181 192.334 76.7638 192.345 77.8038C192.357 78.4209 191.957 79.2438 190.665 79.2438C189.957 79.2438 189.305 78.9581 189.02 78.7752L188.745 79.5409Z" fill="black"/>
</svg>
