<svg width="60" height="60" viewBox="0 0 60 60" fill="none" xmlns="http://www.w3.org/2000/svg">
<path d="M23.9501 14.0889C23.9852 14.0667 24.0165 14.0426 24.046 14.0168C24.9826 13.2271 26.1625 12.6132 27.3092 12.1934C28.4505 11.7736 30.0249 11.6775 31.1993 12.1065C31.0942 12.0676 30.6518 11.5831 30.5762 11.4962C30.2591 11.1393 29.8885 10.8231 29.481 10.5734C28.2163 9.80046 26.7469 9.79861 25.4859 10.5291C24.3502 11.1892 23.1647 11.9955 22.4162 13.0995C22.4088 13.1106 22.4015 13.1217 22.3941 13.1328C22.2743 13.3122 22.3019 13.6802 22.3867 13.8614C22.6559 14.4495 23.4892 14.3903 23.9501 14.0889Z" fill="#E88110"/>
<path d="M40.4073 5.77653C41.1743 5.30867 42.0205 4.99615 42.8022 4.55418C43.2059 4.32672 43.5913 4.06597 43.9268 3.74421C44.2458 3.43908 44.4965 3.04704 44.915 2.86951C45.1104 2.78629 45.3538 2.7789 45.3851 3.03594C45.4441 3.5112 44.939 4.16768 44.703 4.55048C43.7535 6.08166 42.4242 7.34099 40.8811 8.26192C40.8811 8.26192 37.2915 10.2573 37.2676 11.2466C37.3137 9.35667 38.8107 6.74923 40.4073 5.77653Z" fill="#E88110"/>
<path d="M27.2793 9.99633C27.2811 9.96305 28.981 10.5825 29.1395 10.6621C29.7442 10.9672 30.3121 11.3518 30.8191 11.803C31.8331 12.7055 32.6019 13.8779 32.9854 15.1853C33.308 16.2819 33.3117 17.4248 33.3688 18.5584C33.4592 20.378 33.4481 22.2384 33.1624 24.0414C32.9743 25.2304 32.5318 26.3714 31.9382 27.4163C31.6395 27.9414 31.3021 28.4426 30.9297 28.916C30.7711 29.1176 29.9157 29.8517 30.3397 30.0958C30.8836 30.4102 32.0156 29.5115 32.4507 29.2415C34.3957 28.0395 35.8356 26.4435 36.5547 24.2355C37.0506 22.7118 37.2018 21.1159 37.2921 19.5255C37.3474 18.5362 37.3622 17.5431 37.3327 16.5519C37.305 15.6347 37.1612 14.7101 37.1612 13.7947C37.0561 12.0656 37.4083 10.4975 38.0203 8.88123C38.3872 7.91223 39.0325 7.03384 39.8658 6.41804C40.3581 6.05373 40.9038 5.7708 41.4182 5.44348C41.656 5.29184 41.8772 5.11986 42.1206 4.97747C42.3658 4.83323 42.6184 4.70378 42.8544 4.5429C42.882 4.52441 42.9078 4.50961 42.9226 4.48372C42.8544 4.46153 42.7235 4.54105 42.6589 4.56694C42.5133 4.62796 42.3695 4.69454 42.2257 4.75926C42.0174 4.85542 41.8127 4.97192 41.597 5.05144C41.3868 5.12911 41.1748 5.20678 40.9646 5.28445C40.5738 5.42869 40.1811 5.57108 39.7958 5.73196C38.8481 6.12585 37.8434 6.40139 36.8607 6.68988C35.819 6.995 34.7626 7.25205 33.697 7.45916C31.9787 7.79203 30.2181 7.94182 28.6086 8.69076C28.0942 8.93486 27.3033 9.33985 27.2793 9.99633Z" fill="#FDAB44"/>
<path d="M32.5992 7.06158C34.1927 7.06158 35.4845 5.76586 35.4845 4.16751C35.4845 2.56916 34.1927 1.27344 32.5992 1.27344C31.0057 1.27344 29.7139 2.56916 29.7139 4.16751C29.7139 5.76586 31.0057 7.06158 32.5992 7.06158Z" fill="#FDAB44"/>
<path d="M33.7108 1.49359C33.9689 1.63043 34.2288 1.77652 34.4556 1.9596C34.6768 2.13897 34.8557 2.35533 35.0124 2.59204C35.1691 2.82874 35.2871 3.08949 35.3645 3.36318C35.3977 3.47968 35.4235 3.59803 35.442 3.71638C35.4585 3.82179 35.4696 3.9272 35.477 4.0326C35.4917 4.25266 35.4899 4.46903 35.453 4.68909C35.3608 5.25126 35.0935 5.75425 34.6953 6.15739C33.9007 6.95811 32.6968 7.30023 31.6256 6.89154C31.5334 6.85641 31.4431 6.81572 31.3546 6.76949C31.2864 6.73436 31.2145 6.68627 31.2034 6.61046C31.1924 6.53279 31.255 6.46621 31.3196 6.42368C31.456 6.33677 31.6238 6.30903 31.786 6.30718C31.9483 6.30533 32.1105 6.32752 32.2727 6.32937C32.8369 6.33307 33.3992 6.06678 33.7495 5.62296C33.9597 5.35851 34.0943 5.04414 34.1293 4.70758C34.1569 4.45053 34.1348 4.18979 34.0961 3.93274C33.9836 3.20044 33.7679 2.41081 33.178 1.92076C33.1429 1.89117 33.1061 1.86343 33.0784 1.82645C33.0028 1.72844 33.0083 1.52132 33.0987 1.43071C33.1872 1.3438 33.6831 1.47879 33.7108 1.49359Z" fill="#E88110"/>
<path d="M14.5563 22.858C14.5655 22.8173 14.5729 22.7785 14.5766 22.7396C14.7167 21.521 15.1573 20.2616 15.7012 19.1669C16.245 18.0758 17.3236 16.9219 18.4722 16.4263C18.3708 16.4707 17.7163 16.4226 17.602 16.4115C17.1263 16.369 16.6414 16.3948 16.175 16.4947C14.7259 16.8035 13.6547 17.8132 13.2381 19.2113C12.862 20.4724 12.5522 21.8742 12.7624 23.1927C12.7643 23.2056 12.7661 23.2186 12.7698 23.2315C12.8048 23.4442 13.0777 23.692 13.262 23.766C13.8631 24.0101 14.4291 23.3943 14.5563 22.858Z" fill="#BF3932"/>
<path d="M20.8429 5.48429C21.0807 4.61699 21.4827 3.80517 21.75 2.94712C21.8883 2.50515 21.9897 2.04839 22.0136 1.58423C22.0358 1.14226 21.9509 0.685491 22.1353 0.267561C22.2201 0.07339 22.3916 -0.0985901 22.5907 0.065993C22.9594 0.371119 23.0405 1.19588 23.129 1.63785C23.4867 3.40574 23.3798 5.23649 22.8875 6.96739C22.8875 6.96739 21.6412 10.8896 22.3012 11.6256C21.0402 10.2184 20.347 7.29101 20.8429 5.48429Z" fill="#BF3932"/>
<path d="M14.1762 17.5895C14.1541 17.5636 15.8152 16.8442 15.9867 16.7943C16.6356 16.6001 17.3104 16.4892 17.9889 16.4688C19.3439 16.4263 20.7064 16.7518 21.8789 17.4378C22.8634 18.0148 23.6488 18.8433 24.4656 19.6274C25.7764 20.8885 27.0411 22.2496 28.0662 23.7567C28.7428 24.7516 29.2019 25.8871 29.4839 27.0539C29.6259 27.6401 29.7218 28.2393 29.7771 28.8403C29.7992 29.0955 29.6794 30.218 30.155 30.1052C30.7653 29.961 30.9736 28.5278 31.1064 28.0303C31.6982 25.8168 31.6539 23.6643 30.6676 21.5654C29.9873 20.1156 29.0046 18.8507 27.9814 17.632C27.3453 16.8738 26.6761 16.1415 25.9773 15.4407C25.3302 14.7916 24.5928 14.2202 23.9659 13.5526C22.7067 12.3654 21.89 10.9858 21.23 9.38621C20.8336 8.4283 20.7027 7.34464 20.8871 6.32386C20.9977 5.71915 21.1986 5.14034 21.3498 4.54673C21.4199 4.27304 21.4623 3.99565 21.5415 3.72381C21.6208 3.45012 21.7167 3.18198 21.7775 2.90275C21.7849 2.87131 21.7941 2.84172 21.7867 2.81213C21.7222 2.84172 21.6798 2.98966 21.6522 3.05439C21.5876 3.19863 21.5286 3.34657 21.4696 3.49266C21.383 3.70532 21.3148 3.93278 21.2134 4.13805C21.1138 4.33961 21.0124 4.54118 20.9129 4.74275C20.7267 5.1163 20.5404 5.4917 20.369 5.87264C19.9486 6.81206 19.4085 7.7034 18.8904 8.58919C18.341 9.52861 17.7492 10.4421 17.115 11.3261C16.0917 12.75 14.9137 14.0722 14.2573 15.7236C14.0435 16.258 13.7429 17.0957 14.1762 17.5895Z" fill="#FD6F63"/>
<path d="M14.0611 12.5816C15.6546 12.5816 16.9464 11.2859 16.9464 9.68758C16.9464 8.08922 15.6546 6.7935 14.0611 6.7935C12.4676 6.7935 11.1758 8.08922 11.1758 9.68758C11.1758 11.2859 12.4676 12.5816 14.0611 12.5816Z" fill="#FD6F63"/>
<path d="M13.0396 6.97659C13.3199 6.89892 13.6093 6.8268 13.9006 6.80276C14.1827 6.78057 14.4629 6.8157 14.7376 6.88042C15.0123 6.94515 15.2778 7.05425 15.5212 7.1985C15.6244 7.25952 15.724 7.32794 15.8198 7.40191C15.9028 7.46664 15.9839 7.53506 16.0614 7.60718C16.2236 7.75697 16.3693 7.916 16.4928 8.10093C16.8117 8.57249 16.9611 9.12356 16.9463 9.68943C16.9168 10.8175 16.2752 11.8974 15.2151 12.3357C15.123 12.3745 15.0289 12.406 14.9349 12.4337C14.8612 12.4541 14.7763 12.4707 14.7174 12.4226C14.6565 12.3745 14.6547 12.2821 14.6749 12.2063C14.7137 12.0491 14.8188 11.9141 14.9349 11.8013C15.0529 11.6885 15.1856 11.5923 15.3036 11.4814C15.7166 11.0949 15.9434 10.5142 15.8954 9.95018C15.8659 9.61361 15.7498 9.29184 15.5451 9.02185C15.3884 8.81474 15.1949 8.64091 14.9921 8.48187C14.4095 8.02696 13.7126 7.60163 12.9475 7.64971C12.9014 7.65341 12.8553 7.65711 12.811 7.64971C12.6875 7.63122 12.5511 7.47588 12.5548 7.34828C12.5548 7.22993 13.0083 6.98583 13.0396 6.97659Z" fill="#BF3932"/>
<path d="M13.8849 36.0133C13.8628 35.9781 13.8388 35.9467 13.813 35.9171C13.0221 34.9814 12.4063 33.7979 11.9823 32.6513C11.5601 31.5085 11.4569 29.9292 11.8809 28.7494C11.844 28.8548 11.361 29.3005 11.2762 29.3782C10.9204 29.6981 10.6088 30.0698 10.3617 30.4803C9.59479 31.7526 9.59847 33.2264 10.3322 34.4876C10.9941 35.6249 11.8035 36.8103 12.906 37.5574C12.917 37.5648 12.9281 37.5722 12.9391 37.5796C13.118 37.6998 13.4849 37.6683 13.6655 37.5851C14.25 37.3096 14.1873 36.4737 13.8849 36.0133Z" fill="#1289B2"/>
<path d="M5.53831 19.5384C5.07002 18.771 4.75292 17.9222 4.31229 17.1399C4.08368 16.7368 3.82372 16.3503 3.50109 16.0156C3.19504 15.6975 2.80419 15.4479 2.62536 15.0262C2.54239 14.8302 2.53317 14.588 2.78944 14.5547C3.26326 14.4937 3.91959 14.9985 4.30123 15.2334C5.83145 16.1802 7.0925 17.5098 8.01616 19.0521C8.01616 19.0521 10.0202 22.6452 11.0047 22.6655C9.1205 22.6285 6.51544 21.1362 5.53831 19.5384Z" fill="#1289B2"/>
<path d="M9.79214 32.6902C9.75895 32.6884 10.371 30.9815 10.4503 30.8207C10.7527 30.2123 11.1325 29.6427 11.5805 29.1323C12.4765 28.1115 13.6435 27.3367 14.9451 26.9465C16.0384 26.6192 17.1778 26.6099 18.3061 26.5489C20.1202 26.4509 21.9749 26.4546 23.7725 26.7357C24.9598 26.9206 26.0991 27.3589 27.1408 27.9506C27.6644 28.2484 28.1659 28.5849 28.6415 28.9566C28.8425 29.1138 29.5781 29.97 29.8196 29.5447C30.1312 28.9991 29.2315 27.8674 28.9605 27.4291C27.7547 25.4837 26.1581 24.045 23.955 23.3312C22.434 22.8393 20.8429 22.6932 19.2555 22.61C18.2692 22.5582 17.2792 22.5471 16.291 22.5804C15.3765 22.6118 14.4565 22.7598 13.5421 22.7635C11.8183 22.8744 10.2549 22.5286 8.63986 21.9202C7.67195 21.5559 6.79438 20.9124 6.17676 20.0784C5.81172 19.5846 5.5278 19.0409 5.19963 18.525C5.04845 18.2883 4.87515 18.0664 4.73134 17.8223C4.58754 17.5763 4.45664 17.323 4.29624 17.0881C4.27781 17.0604 4.26306 17.0345 4.23725 17.0197C4.21512 17.0881 4.2944 17.2194 4.32205 17.2842C4.38289 17.4302 4.44927 17.5745 4.51564 17.7187C4.61151 17.9277 4.7295 18.133 4.80878 18.3475C4.88805 18.5583 4.96549 18.7691 5.04292 18.9818C5.18857 19.3738 5.33237 19.7658 5.49277 20.1523C5.88915 21.101 6.16754 22.107 6.45883 23.0926C6.76672 24.1356 7.02852 25.1952 7.23869 26.2623C7.57608 27.9839 7.73279 29.7499 8.48684 31.3606C8.73204 31.8784 9.1358 32.6699 9.79214 32.6902Z" fill="#5BC2FC"/>
<path d="M3.9644 30.2697C5.5579 30.2697 6.84969 28.974 6.84969 27.3756C6.84969 25.7772 5.5579 24.4815 3.9644 24.4815C2.37089 24.4815 1.0791 25.7772 1.0791 27.3756C1.0791 28.974 2.37089 30.2697 3.9644 30.2697Z" fill="#5BC2FC"/>
<path d="M1.29402 26.2697C1.4286 26.0108 1.57425 25.75 1.75677 25.5207C1.93376 25.2988 2.14947 25.1176 2.38545 24.9604C2.62144 24.8032 2.88139 24.683 3.15241 24.6054C3.26856 24.5721 3.38655 24.5462 3.50454 24.5258C3.60963 24.5092 3.71287 24.4962 3.8198 24.4889C4.0392 24.4741 4.2549 24.4741 4.4743 24.5092C5.03476 24.598 5.53808 24.8643 5.93999 25.2637C6.74013 26.057 7.08673 27.2646 6.68298 28.339C6.64795 28.4315 6.60739 28.5239 6.56314 28.6127C6.52811 28.6811 6.48018 28.7532 6.40643 28.7643C6.329 28.7754 6.26078 28.7125 6.22022 28.6478C6.13173 28.511 6.10407 28.3427 6.10223 28.18C6.10039 28.0172 6.12251 27.8545 6.12251 27.6918C6.12435 27.1259 5.85518 26.5637 5.41271 26.2124C5.14723 26.0034 4.83381 25.8702 4.49826 25.8351C4.242 25.8092 3.98204 25.8314 3.72578 25.8702C2.99754 25.9849 2.21031 26.2068 1.72359 26.7986C1.69409 26.8337 1.66643 26.8707 1.62956 26.8984C1.53185 26.9761 1.32536 26.9687 1.23502 26.8799C1.14653 26.7967 1.28111 26.2974 1.29402 26.2697Z" fill="#1289B2"/>
<path d="M22.9958 45.8166C22.9552 45.8074 22.9165 45.8018 22.8778 45.7981C21.6591 45.6909 20.3926 45.284 19.2864 44.7681C18.1839 44.254 17.004 43.2036 16.4785 42.0645C16.5246 42.1662 16.4951 42.8227 16.4877 42.9373C16.4601 43.4163 16.497 43.9008 16.6094 44.3668C16.956 45.8129 17.9921 46.8577 19.3988 47.2368C20.6673 47.5789 22.0721 47.8508 23.3811 47.6048C23.394 47.603 23.4069 47.5993 23.4198 47.5974C23.6318 47.5567 23.8697 47.2757 23.9397 47.0889C24.1647 46.4805 23.5341 45.9294 22.9958 45.8166Z" fill="#09468E"/>
<path d="M5.50924 39.9914C4.6372 39.7769 3.81863 39.396 2.9558 39.1519C2.51149 39.0261 2.05426 38.9355 1.59151 38.9244C1.15088 38.9133 0.697343 39.0113 0.275149 38.8393C0.0797235 38.7598 -0.097266 38.5915 0.0612871 38.3881C0.35627 38.009 1.17485 37.9055 1.61179 37.8038C3.36325 37.3969 5.19214 37.4543 6.93069 37.8999C6.93069 37.8999 10.8742 39.0409 11.5896 38.3604C10.2234 39.6623 7.32523 40.4389 5.50924 39.9914Z" fill="#09468E"/>
<path d="M17.7568 46.3399C17.7329 46.3621 16.9696 44.7162 16.9143 44.548C16.7023 43.9026 16.5732 43.2276 16.5345 42.5489C16.4552 41.1916 16.741 39.8176 17.3936 38.6211C17.9412 37.617 18.745 36.807 19.5046 35.9674C20.7251 34.6193 22.047 33.3119 23.5219 32.2449C24.4953 31.5385 25.6126 31.0484 26.7685 30.7341C27.3493 30.575 27.943 30.4622 28.5403 30.392C28.7947 30.3624 29.9156 30.453 29.7903 29.9777C29.6299 29.3693 28.1955 29.1992 27.6977 29.0808C25.4762 28.5483 23.332 28.6518 21.2653 29.6985C19.8402 30.4216 18.6068 31.4405 17.4195 32.5001C16.6802 33.1584 15.9704 33.8501 15.2919 34.5694C14.6632 35.237 14.1138 35.9915 13.4667 36.6387C12.3181 37.9332 10.9649 38.7912 9.3904 39.4977C8.44645 39.9211 7.37161 40.0839 6.34839 39.9248C5.74368 39.8305 5.15924 39.6438 4.56375 39.5088C4.28905 39.4459 4.0125 39.4107 3.73964 39.3386C3.46494 39.2665 3.19392 39.1777 2.91553 39.1241C2.88419 39.1186 2.85469 39.1093 2.8252 39.1186C2.85654 39.1833 3.00587 39.2203 3.0704 39.248C3.21605 39.309 3.36538 39.3645 3.51287 39.42C3.72674 39.4995 3.95535 39.5642 4.16368 39.6604C4.36832 39.7547 4.57112 39.8509 4.77392 39.9452C5.15187 40.1209 5.52982 40.2984 5.91514 40.4593C6.86277 40.855 7.76615 41.3728 8.664 41.8684C9.61532 42.3936 10.5427 42.9613 11.4405 43.5734C12.8878 44.5591 14.2373 45.7056 15.9021 46.3177C16.4331 46.51 17.2775 46.7874 17.7568 46.3399Z" fill="#0458F1"/>
<path d="M9.8853 49.5669C11.4788 49.5669 12.7706 48.2711 12.7706 46.6728C12.7706 45.0744 11.4788 43.7787 9.8853 43.7787C8.29179 43.7787 7 45.0744 7 46.6728C7 48.2711 8.29179 49.5669 9.8853 49.5669Z" fill="#0458F1"/>
<path opacity="0.36" d="M7.21554 47.7713C7.12889 47.492 7.04961 47.2054 7.02011 46.9132C6.99061 46.6303 7.01642 46.3492 7.07358 46.0718C7.13073 45.7944 7.23213 45.5263 7.36856 45.2785C7.42756 45.1731 7.49208 45.0714 7.56398 44.9734C7.62667 44.8883 7.69304 44.8051 7.76125 44.7256C7.9069 44.5591 8.05992 44.4093 8.2406 44.278C8.70151 43.9452 9.24538 43.7806 9.81138 43.7806C10.9378 43.7806 12.0293 44.3927 12.4957 45.4431C12.5363 45.5337 12.5713 45.6261 12.6008 45.7223C12.6229 45.7944 12.6414 45.8813 12.5953 45.9405C12.5473 46.0015 12.457 46.0071 12.3814 45.9904C12.2229 45.9553 12.0864 45.8555 11.9703 45.7408C11.8541 45.6261 11.7564 45.4948 11.6421 45.3802C11.2457 44.9771 10.6613 44.7662 10.1008 44.8291C9.76529 44.868 9.45003 44.9937 9.18639 45.2045C8.98543 45.3672 8.81582 45.5651 8.66279 45.7741C8.22585 46.3695 7.82025 47.0815 7.88847 47.8471C7.89215 47.8933 7.89768 47.9396 7.89215 47.9839C7.87556 48.1078 7.72438 48.2484 7.59717 48.2484C7.47918 48.2502 7.22475 47.8009 7.21554 47.7713Z" fill="#09468E"/>
<path d="M36.3508 46.2564C36.3176 46.2786 36.2844 46.3026 36.2549 46.3285C35.3257 47.1255 34.1495 47.7506 33.0082 48.1814C31.8707 48.6105 30.2981 48.7214 29.1182 48.3016C29.2233 48.3386 29.6694 48.8213 29.7468 48.9063C30.0676 49.2614 30.4401 49.5721 30.8493 49.818C32.1215 50.5799 33.5908 50.5707 34.8445 49.8273C35.9747 49.1578 37.1527 48.3405 37.892 47.2309C37.8994 47.2198 37.9068 47.2087 37.9142 47.1976C38.034 47.0183 38.0008 46.6503 37.916 46.469C37.6432 45.8847 36.808 45.9513 36.3508 46.2564Z" fill="#34936F"/>
<path d="M19.966 54.7112C19.2027 55.1846 18.3583 55.5063 17.5803 55.9539C17.1784 56.185 16.7949 56.4495 16.4631 56.7731C16.1478 57.0819 15.9008 57.4739 15.4822 57.657C15.2887 57.7421 15.0453 57.7513 15.0103 57.4943C14.9476 57.019 15.4472 56.3589 15.6795 55.9742C16.6161 54.4338 17.9343 53.1634 19.47 52.2295C19.47 52.2295 23.043 50.2027 23.0578 49.2134C23.0301 51.1033 21.5552 53.7237 19.966 54.7112Z" fill="#34936F"/>
<path d="M33.0573 50.3783C33.0573 50.4116 31.3501 49.8069 31.1915 49.7274C30.5831 49.426 30.0134 49.0487 29.5027 48.6012C28.4795 47.708 27.7015 46.5411 27.307 45.2374C26.9751 44.1427 26.9603 42.9998 26.894 41.8681C26.787 40.0503 26.7834 38.1881 27.0525 36.3851C27.2314 35.1941 27.6628 34.0495 28.2472 33.0009C28.5403 32.4739 28.8759 31.9691 29.2428 31.492C29.3995 31.2885 30.2494 30.5488 29.8235 30.3066C29.2778 29.9959 28.1532 30.9039 27.7199 31.1776C25.786 32.3981 24.359 34.0051 23.6602 36.2186C23.1772 37.7461 23.0408 39.3439 22.9633 40.9342C22.9154 41.9236 22.9117 42.9166 22.9486 43.9078C22.9836 44.825 23.1366 45.7478 23.144 46.6632C23.2638 48.3922 22.9265 49.9622 22.3273 51.584C21.9678 52.5567 21.3317 53.4407 20.5021 54.062C20.0117 54.43 19.4696 54.7167 18.9571 55.0495C18.7211 55.203 18.5017 55.3768 18.2584 55.5211C18.015 55.6672 17.7624 55.8003 17.5283 55.9612C17.5006 55.9797 17.4748 55.9945 17.4619 56.0204C17.5301 56.0426 17.661 55.9631 17.7256 55.9335C17.8712 55.8706 18.015 55.804 18.157 55.7375C18.3635 55.6394 18.5681 55.5211 18.7838 55.4397C18.994 55.3602 19.2042 55.2807 19.4143 55.2012C19.8033 55.0532 20.196 54.9071 20.5795 54.7444C21.5235 54.3431 22.5245 54.0583 23.5054 53.7606C24.5452 53.4462 25.5979 53.1799 26.6617 52.9636C28.3763 52.6159 30.1369 52.4513 31.7391 51.6876C32.2516 51.4453 33.0407 51.0348 33.0573 50.3783Z" fill="#59C09C"/>
<path d="M27.7867 59.1457C29.3802 59.1457 30.672 57.85 30.672 56.2516C30.672 54.6533 29.3802 53.3576 27.7867 53.3576C26.1932 53.3576 24.9014 54.6533 24.9014 56.2516C24.9014 57.85 26.1932 59.1457 27.7867 59.1457Z" fill="#59C09C"/>
<path opacity="0.4" d="M26.7005 58.9349C26.4405 58.8018 26.1806 58.6575 25.952 58.4744C25.7289 58.2969 25.5482 58.0824 25.3896 57.8476C25.2311 57.6127 25.1112 57.352 25.032 57.0801C24.9969 56.9636 24.9711 56.8471 24.9509 56.7269C24.9343 56.6234 24.9214 56.5179 24.9121 56.4125C24.8955 56.1925 24.8955 55.9761 24.9306 55.7561C25.0172 55.192 25.2809 54.6872 25.6754 54.2822C26.4626 53.4759 27.6647 53.1209 28.7377 53.5222C28.8299 53.5573 28.9221 53.5961 29.0106 53.6424C29.0788 53.6775 29.1525 53.7237 29.1617 53.7995C29.1728 53.8772 29.1119 53.9456 29.0474 53.9882C28.911 54.0769 28.7432 54.1047 28.581 54.1084C28.4187 54.1102 28.2565 54.0899 28.0943 54.0899C27.5301 54.0917 26.9715 54.3636 26.623 54.8092C26.4147 55.0755 26.2838 55.3899 26.2506 55.7283C26.2248 55.9854 26.2488 56.2461 26.2912 56.5013C26.4092 57.2318 26.6341 58.0195 27.2259 58.5059C27.2609 58.5355 27.2978 58.5632 27.3273 58.6002C27.4047 58.6982 27.3992 58.9053 27.3107 58.9959C27.2259 59.081 26.7281 58.9497 26.7005 58.9349Z" fill="#34936F"/>
<path d="M45.5559 36.9548C45.5467 36.9955 45.5412 37.0343 45.5375 37.0731C45.4269 38.2936 45.0176 39.5641 44.4995 40.6718C43.9833 41.7758 42.9324 42.9556 41.7949 43.4789C41.8963 43.4327 42.5508 43.4641 42.6651 43.4715C43.1426 43.5011 43.6257 43.4641 44.0903 43.3532C45.532 43.0092 46.5773 41.9736 46.959 40.5645C47.3037 39.2941 47.5784 37.885 47.3369 36.572C47.3351 36.559 47.3314 36.5461 47.3295 36.5332C47.289 36.3205 47.0106 36.0801 46.8244 36.0098C46.2215 35.7842 45.6703 36.4148 45.5559 36.9548Z" fill="#59C09C"/>
<path d="M39.6943 54.4766C39.4767 55.3494 39.0951 56.1705 38.8499 57.0359C38.7227 57.4816 38.6323 57.9402 38.6194 58.4044C38.6084 58.8463 38.7042 59.3013 38.5309 59.7247C38.4498 59.9207 38.282 60.0983 38.0792 59.9374C37.7031 59.6415 37.6017 58.8186 37.5022 58.3803C37.1021 56.6217 37.1648 54.7891 37.6147 53.0452C37.6147 53.0452 38.7651 49.0934 38.0885 48.374C39.3809 49.748 40.146 52.6569 39.6943 54.4766Z" fill="#59C09C"/>
<path d="M46.061 42.2123C46.0832 42.2363 44.4405 42.9963 44.2709 43.0518C43.6256 43.2626 42.9545 43.3884 42.2779 43.4272C40.9247 43.503 39.5548 43.2109 38.3657 42.5525C37.3664 41.9996 36.5626 41.1915 35.7274 40.4259C34.3871 39.198 33.0892 37.8665 32.0273 36.3853C31.3267 35.407 30.84 34.2845 30.5302 33.1232C30.3735 32.5407 30.2629 31.9452 30.1947 31.3442C30.1652 31.089 30.2592 29.9647 29.7872 30.0886C29.1807 30.2476 29.0055 31.6863 28.8857 32.1856C28.3473 34.4121 28.4432 36.5628 29.4812 38.6395C30.1965 40.0708 31.2105 41.3117 32.2614 42.5063C32.9159 43.2497 33.6017 43.9635 34.3189 44.6477C34.9826 45.2802 35.733 45.8349 36.3746 46.4859C37.6614 47.6417 38.5113 49.0027 39.2119 50.5838C39.6304 51.5306 39.789 52.6106 39.6286 53.6369C39.5327 54.2435 39.3447 54.8278 39.2082 55.4251C39.1456 55.7007 39.1087 55.9781 39.0368 56.2518C38.963 56.5273 38.8745 56.7973 38.8211 57.0784C38.8155 57.1098 38.8063 57.1394 38.8155 57.169C38.8801 57.1375 38.9169 56.9878 38.9446 56.923C39.0054 56.7769 39.0607 56.629 39.1179 56.4792C39.199 56.2647 39.2617 56.0354 39.3594 55.8283C39.4553 55.6249 39.5512 55.4196 39.6452 55.2162C39.8222 54.8371 40.001 54.4598 40.1614 54.0733C40.5578 53.1247 41.0777 52.2204 41.5736 51.3217C42.0991 50.3693 42.6687 49.441 43.2808 48.5422C44.269 47.0924 45.4139 45.7425 46.0315 44.0763C46.227 43.54 46.5054 42.6949 46.061 42.2123Z" fill="#7EE8BF"/>
<path d="M46.3697 53.0024C47.9632 53.0024 49.255 51.7067 49.255 50.1084C49.255 48.51 47.9632 47.2143 46.3697 47.2143C44.7762 47.2143 43.4844 48.51 43.4844 50.1084C43.4844 51.7067 44.7762 53.0024 46.3697 53.0024Z" fill="#7EE8BF"/>
<path d="M47.4557 52.7936C47.1773 52.8787 46.8897 52.9582 46.6003 52.9878C46.3182 53.0174 46.0379 52.9896 45.7614 52.9323C45.4849 52.875 45.2175 52.7714 44.9705 52.6327C44.8654 52.5735 44.764 52.507 44.6681 52.4367C44.5833 52.3738 44.5003 52.3073 44.4211 52.237C44.2551 52.0909 44.1058 51.9356 43.9768 51.7543C43.6467 51.2902 43.4845 50.7446 43.4863 50.1769C43.49 49.047 44.104 47.9541 45.1512 47.49C45.2415 47.4493 45.3355 47.4141 45.4295 47.3846C45.5014 47.3624 45.5881 47.3439 45.6471 47.3901C45.7079 47.4382 45.7116 47.5288 45.695 47.6046C45.66 47.7636 45.5586 47.9005 45.4443 48.017C45.33 48.1335 45.1991 48.2315 45.0829 48.3443C44.6792 48.7401 44.4672 49.3263 44.5298 49.8884C44.5667 50.225 44.6921 50.5431 44.9023 50.8075C45.0627 51.0091 45.2618 51.1792 45.4683 51.3345C46.0619 51.7747 46.7699 52.1834 47.5313 52.1168C47.5774 52.1131 47.6235 52.1075 47.6677 52.1131C47.7912 52.1297 47.9314 52.2814 47.9314 52.409C47.9332 52.5292 47.4852 52.7844 47.4557 52.7936Z" fill="#59C09C"/>
<path d="M45.9505 23.6809C45.9726 23.7161 45.9966 23.7475 46.0224 23.7771C46.8115 24.7128 47.4272 25.8963 47.8513 27.0429C48.2735 28.1857 48.3749 29.7649 47.9508 30.9448C47.9896 30.8394 48.4708 30.3937 48.5574 30.3179C48.9132 29.9979 49.2248 29.6263 49.4737 29.2157C50.2406 27.9434 50.2388 26.4696 49.505 25.2084C48.8432 24.0711 48.0357 22.8857 46.9332 22.1368C46.9221 22.1294 46.911 22.122 46.9 22.1146C46.7211 21.9944 46.3543 22.024 46.1736 22.1091C45.5855 22.3846 45.6463 23.2205 45.9505 23.6809Z" fill="#E9B309"/>
<path d="M54.2908 40.1614C54.7591 40.9288 55.0744 41.7776 55.5169 42.5599C55.7455 42.963 56.0054 43.3495 56.3281 43.6842C56.6341 44.0023 57.0249 44.2519 57.2038 44.6736C57.2867 44.8696 57.2941 45.1118 57.0397 45.1451C56.5659 45.2061 55.9095 44.7013 55.5279 44.4646C53.9977 43.5178 52.7385 42.1863 51.8148 40.644C51.8148 40.644 49.8126 37.0491 48.8281 37.0288C50.7105 37.0695 53.3137 38.5618 54.2908 40.1614Z" fill="#E9B309"/>
<path d="M50.0405 27.0059C50.0736 27.0077 49.4616 28.7146 49.3823 28.8755C49.0799 29.4839 48.6983 30.0534 48.2503 30.5638C47.3543 31.5846 46.1872 32.3594 44.8856 32.7478C43.7924 33.0751 42.653 33.0825 41.5247 33.1435C39.7105 33.2397 37.8558 33.236 36.0583 32.9549C34.8728 32.77 33.7316 32.3299 32.69 31.7381C32.1664 31.4404 31.6649 31.1038 31.1911 30.7321C30.9901 30.5749 30.2564 29.7187 30.013 30.144C29.7014 30.6896 30.6011 31.8232 30.8703 32.2596C32.076 34.2068 33.6708 35.6456 35.8739 36.3594C37.3931 36.8513 38.986 36.9974 40.5715 37.0824C41.5579 37.1361 42.5479 37.1453 43.5361 37.1139C44.4505 37.0843 45.3705 36.9363 46.285 36.9326C48.0088 36.8217 49.5722 37.1693 51.1872 37.7777C52.1551 38.142 53.0327 38.7874 53.6485 39.6214C54.0117 40.1152 54.2956 40.6589 54.6256 41.1767C54.7768 41.4134 54.9501 41.6353 55.092 41.8794C55.2358 42.1253 55.3667 42.3787 55.5271 42.6135C55.5456 42.6413 55.5603 42.6672 55.5861 42.6819C55.6083 42.6135 55.529 42.4822 55.5013 42.4175C55.4405 42.2714 55.3741 42.1272 55.3077 41.9829C55.2119 41.774 55.0939 41.5687 55.0146 41.3542C54.9372 41.1434 54.8579 40.9326 54.7805 40.7199C54.6348 40.3279 54.491 39.9358 54.3306 39.5493C53.9342 38.6007 53.6558 37.5947 53.3645 36.609C53.0567 35.566 52.7967 34.5064 52.5865 33.4394C52.2491 31.7178 52.0943 29.9499 51.3421 28.341C51.1024 27.8195 50.6968 27.0281 50.0405 27.0059Z" fill="#FFDD4D"/>
<path d="M55.8677 35.2182C57.4612 35.2182 58.753 33.9225 58.753 32.3241C58.753 30.7258 57.4612 29.4301 55.8677 29.4301C54.2742 29.4301 52.9824 30.7258 52.9824 32.3241C52.9824 33.9225 54.2742 35.2182 55.8677 35.2182Z" fill="#FFDD4D"/>
<path opacity="0.4" d="M58.5367 33.4302C58.4021 33.6891 58.2565 33.9498 58.074 34.1791C57.897 34.401 57.6813 34.5823 57.4453 34.7395C57.2093 34.8966 56.9493 35.015 56.6783 35.0945C56.5622 35.1278 56.4442 35.1537 56.3262 35.174C56.2211 35.1907 56.1179 35.2036 56.0109 35.211C55.7915 35.2258 55.5758 35.2258 55.3564 35.1907C54.796 35.1001 54.2927 34.8338 53.8907 34.4362C53.0906 33.6429 52.744 32.4353 53.1478 31.3609C53.1828 31.2684 53.2233 31.176 53.2676 31.089C53.3026 31.0206 53.3506 30.9485 53.4243 30.9374C53.5017 30.9263 53.57 30.9892 53.6105 31.0539C53.699 31.1908 53.7248 31.359 53.7267 31.5218C53.7285 31.6845 53.7064 31.8472 53.7064 32.01C53.7045 32.5758 53.9719 33.138 54.4162 33.4894C54.6817 33.6983 54.9932 33.8333 55.3306 33.8685C55.5869 33.8962 55.8468 33.8722 56.1031 33.8333C56.8313 33.7187 57.6186 33.4986 58.1071 32.9069C58.1366 32.8717 58.1643 32.8347 58.2012 32.807C58.2989 32.7293 58.5054 32.7367 58.5957 32.8255C58.686 32.905 58.5515 33.4025 58.5367 33.4302Z" fill="#E9B309"/>
<path d="M36.8831 14.1666C36.9237 14.174 36.9624 14.1796 37.0011 14.1833C38.2198 14.2702 39.4956 14.6548 40.6091 15.1504C41.719 15.646 42.9174 16.6761 43.4631 17.8041C43.4152 17.7042 43.4336 17.0459 43.4391 16.9313C43.4594 16.4523 43.4133 15.9697 43.2935 15.5055C42.9211 14.0668 41.8683 13.0386 40.4561 12.6854C39.1822 12.3655 37.7718 12.1177 36.4683 12.3877C36.4554 12.3895 36.4425 12.3932 36.4296 12.3951C36.2194 12.4394 35.9853 12.7242 35.9189 12.9128C35.7032 13.5231 36.343 14.0631 36.8831 14.1666Z" fill="#BA9808"/>
<path d="M54.4677 19.6866C55.3434 19.8863 56.1694 20.2525 57.0359 20.4818C57.4839 20.6001 57.9411 20.6815 58.4039 20.6852C58.8445 20.687 59.2962 20.5816 59.7202 20.7481C59.9175 20.8239 60.0963 20.9885 59.9415 21.1956C59.6539 21.5784 58.8353 21.6967 58.4002 21.8058C56.6561 22.2423 54.8272 22.2182 53.0813 21.8021C53.0813 21.8021 49.1193 20.7296 48.415 21.423C49.7609 20.0971 52.6444 19.2724 54.4677 19.6866Z" fill="#D8AE00"/>
<path d="M42.1142 13.5527C42.1381 13.5286 42.9291 15.1615 42.9881 15.3298C43.2111 15.9715 43.3513 16.6428 43.4029 17.3214C43.5061 18.6769 43.2425 20.0565 42.612 21.2622C42.081 22.2756 41.2919 23.0985 40.5471 23.951C39.3506 25.3213 38.0508 26.649 36.5943 27.7438C35.6338 28.4669 34.5239 28.9773 33.3735 29.312C32.7946 29.4802 32.2046 29.6041 31.6073 29.6855C31.3547 29.7207 30.2301 29.6485 30.3647 30.1201C30.5361 30.7248 31.9723 30.8709 32.4738 30.9818C34.7046 31.4756 36.8469 31.335 38.8933 30.2532C40.3056 29.5061 41.5224 28.465 42.6912 27.385C43.4176 26.7138 44.1164 26.0111 44.7838 25.2788C45.4014 24.6001 45.9379 23.8363 46.5739 23.178C47.6986 21.8632 49.0389 20.983 50.6004 20.2488C51.537 19.8087 52.61 19.6275 53.6351 19.768C54.2416 19.8512 54.8279 20.0287 55.4271 20.1526C55.7018 20.21 55.9802 20.2414 56.2549 20.308C56.5296 20.3764 56.8025 20.4596 57.0827 20.5077C57.114 20.5132 57.1454 20.5206 57.173 20.5114C57.1398 20.4467 56.9905 20.4134 56.9241 20.3875C56.7766 20.3302 56.6273 20.2765 56.4798 20.2229C56.2641 20.1471 56.0355 20.0879 55.8253 19.9936C55.6207 19.903 55.4142 19.8105 55.2095 19.7199C54.8279 19.5498 54.4481 19.3797 54.061 19.2262C53.1078 18.8471 52.1952 18.3441 51.2881 17.8651C50.3276 17.3566 49.391 16.8055 48.4821 16.21C47.0183 15.2503 45.6484 14.1278 43.9744 13.5434C43.4342 13.3585 42.5861 13.0959 42.1142 13.5527Z" fill="#F5CD00"/>
<path d="M49.979 15.9752C51.5726 15.9752 52.8643 14.6795 52.8643 13.0811C52.8643 11.4827 51.5726 10.187 49.979 10.187C48.3855 10.187 47.0938 11.4827 47.0938 13.0811C47.0938 14.6795 48.3855 15.9752 49.979 15.9752Z" fill="#F5CD00"/>
<path d="M52.632 11.9384C52.7223 12.2158 52.8071 12.5024 52.8422 12.7927C52.8772 13.0757 52.8551 13.3568 52.8035 13.6342C52.7518 13.9134 52.6541 14.1834 52.5214 14.433C52.4642 14.5403 52.4015 14.642 52.3315 14.7419C52.2706 14.8288 52.2061 14.912 52.1379 14.9933C51.9959 15.1616 51.8448 15.3151 51.6659 15.4483C51.2105 15.7885 50.6685 15.9624 50.1044 15.9734C48.9779 15.9938 47.8754 15.3983 47.3905 14.3572C47.3481 14.2666 47.3112 14.1741 47.2799 14.0798C47.2559 14.0077 47.2375 13.9226 47.2818 13.8616C47.3278 13.7987 47.42 13.7932 47.4956 13.808C47.6542 13.8413 47.7943 13.9374 47.9104 14.0502C48.0266 14.163 48.128 14.2925 48.2441 14.4053C48.646 14.8029 49.236 15.0026 49.7946 14.9286C50.1283 14.8842 50.4436 14.7529 50.7035 14.5366C50.9027 14.3702 51.0667 14.1686 51.2161 13.9578C51.6438 13.3549 52.0347 12.6356 51.9535 11.8718C51.948 11.8256 51.9425 11.7794 51.948 11.735C51.9609 11.6111 52.1102 11.4668 52.2375 11.465C52.3591 11.465 52.6228 11.9088 52.632 11.9384Z" fill="#D8AE00"/>
<path d="M27.3291 10.0611C27.3309 10.0278 29.0308 10.6473 29.1893 10.7268C29.794 11.032 30.3619 11.4166 30.8689 11.8678C31.8829 12.7703 32.6517 13.9427 33.0352 15.2501C33.3578 16.3467 33.3615 17.4896 33.4186 18.6231C33.509 20.4428 33.4979 22.3031 33.2122 24.1062C33.0241 25.2952 32.5816 26.4362 31.988 27.481C31.6893 28.0062 31.3519 28.5074 30.9795 28.9808C30.821 29.1824 29.9655 29.9165 30.3895 30.1606C30.9334 30.475 32.0654 29.5762 32.5005 29.3063C34.4456 28.1042 35.8854 26.5083 36.6045 24.3003C37.1004 22.7766 37.2516 21.1807 37.3419 19.5903C37.3972 18.601 37.412 17.6079 37.3825 16.6167C37.3548 15.6995 37.211 14.7749 37.211 13.8595C37.1059 12.1304 37.4581 10.5623 38.0701 8.94602C38.437 7.97702 39.0823 7.09862 39.9156 6.48282C40.4079 6.11852 40.9536 5.83559 41.468 5.50827C41.7058 5.35663 41.927 5.18465 42.1704 5.04226C42.4156 4.89802 42.6682 4.76857 42.9042 4.60769C42.9318 4.58919 42.9576 4.5744 42.9724 4.54851C42.9042 4.52632 42.7733 4.60584 42.7087 4.63173C42.5631 4.69275 42.4193 4.75932 42.2755 4.82405C42.0672 4.92021 41.8625 5.03671 41.6468 5.11623C41.4366 5.1939 41.2246 5.27157 41.0144 5.34924C40.6236 5.49348 40.2309 5.63587 39.8456 5.79675C38.8979 6.19064 37.8932 6.46618 36.9105 6.75466C35.8688 7.05979 34.8124 7.31684 33.7468 7.52395C32.0285 7.85682 30.2679 8.0066 28.6584 8.75555C28.1421 8.99965 27.3512 9.40279 27.3291 10.0611Z" fill="#FDAB44"/>
</svg>
